<svg width="291" height="264" viewBox="0 0 291 264" fill="none" xmlns="http://www.w3.org/2000/svg">
<ellipse cx="145.128" cy="246.424" rx="95.1279" ry="17.4244" fill="#CBD0DF"/>
<path d="M92.9222 236.913C67.1011 239.229 43.324 222.138 26.7678 202.207C10.7363 182.91 -1.41063 158.785 0.132219 133.752C1.17383 116.928 8.59045 100.573 20.5651 88.6941C29.1408 80.188 40.8414 73.7791 52.863 75.0233C67.336 76.5179 79.0757 88.5219 93.5409 90.087C108.272 91.6755 121.586 82.2539 134.234 74.546C145.622 67.6049 158.027 61.6264 171.317 60.57C184.616 59.5136 198.979 64.1931 206.725 75.039C212.755 83.4902 214.314 94.7586 221.378 102.373C228.755 110.315 240.26 112.42 250.527 115.91C268.015 121.865 284.673 134.542 288.934 152.501C292.92 169.31 285.222 186.901 274.43 200.392C253.997 225.926 221.573 241.451 188.845 241.357C182.117 241.342 175.241 240.661 169.14 237.828" fill="#EBF0FF"/>
<g opacity="0.46">
<path opacity="0.46" d="M155.427 41.3433C156.453 41.3433 156.453 39.7469 155.427 39.7469C154.401 39.7469 154.401 41.3433 155.427 41.3433Z" fill="white"/>
</g>
<path d="M92.4131 215.581C89.6251 218.539 85.811 220.425 81.8404 221.301C77.8697 222.178 73.7346 222.091 69.7091 221.512C57.4524 219.744 45.9477 213.265 38.0847 203.702C39.4474 202.192 41.3975 201.347 43.3241 200.689C50.6232 198.177 58.5959 197.645 66.1691 199.148C73.7424 200.65 80.9006 204.203 86.6803 209.313C88.3172 210.753 91.395 213.671 92.4131 215.581Z" fill="#6FCF97"/>
<path d="M41.7421 204.046C48.1719 205.134 54.4842 206.817 60.7574 208.585C67.0306 210.361 73.2881 212.232 79.6397 213.711C83.1874 214.54 86.7665 215.244 90.3848 215.737C90.7058 215.784 90.8077 215.283 90.4866 215.237C84.0332 214.352 77.6896 212.795 71.4085 211.066C65.1118 209.336 58.87 207.427 52.542 205.831C49.002 204.938 45.4386 204.148 41.8439 203.538C41.5228 203.491 41.421 203.992 41.7421 204.046Z" fill="white"/>
<path d="M82.1066 213.891C80.2192 214.877 78.2613 215.73 76.2564 216.442C74.2514 217.154 72.1917 217.733 70.1085 218.163C68.9259 218.406 67.7355 218.601 66.5372 218.75C66.2161 218.789 66.2474 219.298 66.5764 219.259C68.7223 218.993 70.8525 218.578 72.9435 218.015C75.0268 217.451 77.0787 216.747 79.0679 215.894C80.1957 215.409 81.3078 214.884 82.3964 214.313C82.5217 214.251 82.5374 214.063 82.4669 213.961C82.3729 213.836 82.2241 213.828 82.1066 213.891Z" fill="white"/>
<path d="M75.3557 212.044C74.2984 210.283 72.92 208.742 71.385 207.388C69.8265 206.018 68.1114 204.829 66.3571 203.718C65.3625 203.092 64.3522 202.481 63.3419 201.879C63.0599 201.714 62.8328 202.168 63.1148 202.333C64.8769 203.381 66.6312 204.438 68.3072 205.619C69.9675 206.785 71.5417 208.084 72.9044 209.595C73.664 210.44 74.3532 211.355 74.9328 212.326C75.1051 212.607 75.528 212.326 75.3557 212.044Z" fill="white"/>
<path d="M64.125 209.094C61.4466 210.103 58.6507 210.753 55.8 211.019C55.0011 211.097 54.2023 211.136 53.4035 211.152C53.0745 211.16 53.1137 211.668 53.4426 211.66C56.3247 211.606 59.1989 211.167 61.9635 210.354C62.7467 210.127 63.5298 209.861 64.2973 209.571C64.5949 209.462 64.4305 208.984 64.125 209.094Z" fill="white"/>
<path d="M56.3952 206.762C54.5234 204.633 52.2209 202.912 49.6599 201.699C48.9394 201.362 48.1954 201.065 47.4435 200.807C47.1303 200.705 46.9736 201.182 47.2869 201.292C49.8949 202.168 52.3149 203.577 54.3589 205.416C54.9463 205.94 55.4945 206.504 56.0193 207.098C56.2385 207.349 56.6145 207.004 56.3952 206.762Z" fill="white"/>
<path d="M183.48 230.965C182.337 223.938 183.762 216.629 186.769 210.174C189.777 203.718 194.296 198.052 199.394 193.075C214.901 177.918 236.195 168.809 257.881 168.066C258.531 171.572 257.631 175.179 256.503 178.559C252.219 191.385 244.481 203.045 234.316 211.973C224.15 220.902 211.588 227.076 198.313 229.682C194.578 230.41 187.232 231.576 183.48 230.965Z" fill="#6FCF97"/>
<path d="M253.519 172.792C245.147 180.578 236.093 187.566 226.938 194.406C217.783 201.245 208.518 207.951 199.684 215.205C194.75 219.259 189.957 223.492 185.415 227.984C185.007 228.383 185.595 229.056 186.002 228.649C194.116 220.613 203.028 213.452 212.121 206.558C221.237 199.649 230.541 192.997 239.508 185.892C244.52 181.924 249.423 177.808 254.106 173.457C254.529 173.066 253.942 172.401 253.519 172.792Z" fill="white"/>
<path d="M196.817 218.429C197.452 214.751 198.352 211.12 199.496 207.568C200.639 204.015 202.026 200.541 203.655 197.184C204.579 195.282 205.573 193.42 206.638 191.596C206.928 191.103 206.184 190.61 205.894 191.111C203.976 194.382 202.292 197.786 200.851 201.3C199.41 204.798 198.212 208.405 197.28 212.067C196.747 214.149 196.301 216.254 195.932 218.374C195.893 218.609 196.128 218.836 196.348 218.844C196.606 218.86 196.77 218.664 196.817 218.429Z" fill="white"/>
<path d="M206.576 211.019C210.147 211.418 213.773 211.144 217.29 210.447C220.861 209.743 224.346 208.616 227.761 207.364C229.695 206.652 231.614 205.893 233.532 205.126C234.065 204.915 233.673 204.117 233.141 204.328C229.805 205.658 226.46 206.981 223.03 208.045C219.639 209.102 216.146 209.923 212.598 210.213C210.609 210.377 208.612 210.354 206.631 210.127C206.067 210.064 206.012 210.948 206.576 211.019Z" fill="white"/>
<path d="M222.646 198.53C224.095 193.741 226.171 189.147 228.833 184.906C229.577 183.716 230.368 182.558 231.199 181.431C231.535 180.97 230.791 180.485 230.455 180.946C227.463 185.015 225.019 189.476 223.195 194.187C222.678 195.525 222.216 196.886 221.801 198.256C221.636 198.796 222.482 199.077 222.646 198.53Z" fill="white"/>
<path d="M234.128 190.274C239.085 189.937 243.933 188.568 248.35 186.299C249.595 185.657 250.794 184.945 251.953 184.162C252.43 183.842 251.921 183.106 251.444 183.427C247.449 186.119 242.899 187.989 238.169 188.865C236.814 189.116 235.443 189.288 234.065 189.382C233.485 189.421 233.556 190.313 234.128 190.274Z" fill="white"/>
<path d="M76.6088 188.412C72.6459 189.241 68.6204 189.734 64.5793 189.883C60.5773 190.031 56.5675 189.851 52.5968 189.351C48.5791 188.85 44.6084 188.012 40.7239 186.87C36.8707 185.735 33.1037 184.295 29.4854 182.55C25.8672 180.805 22.3899 178.763 19.1163 176.439C18.709 176.149 18.3018 175.852 17.9023 175.555C17.7222 175.422 17.5343 175.719 17.7222 175.852C20.9802 178.27 24.4496 180.406 28.0757 182.237C31.6783 184.053 35.4219 185.579 39.2672 186.792C43.1126 188.005 47.0598 188.905 51.0539 189.491C55.0716 190.078 59.1362 190.344 63.2009 190.266C67.2342 190.196 71.2597 189.789 75.2226 189.038C75.716 188.944 76.2094 188.85 76.6949 188.74C76.9142 188.709 76.8359 188.365 76.6088 188.412Z" fill="#D45555"/>
<path d="M20.2989 177.268C17.6752 178.02 13.5479 177.143 11.0183 174.999C10.3213 174.412 9.66341 173.708 9.20917 172.863C8.75493 172.018 8.54348 170.992 8.77059 170.179C9.01338 169.334 9.6869 168.825 10.4309 168.606C12.3184 168.05 14.613 169.177 16.3125 170.938C18.0198 172.691 19.2259 174.991 20.2989 177.268Z" fill="#D45555"/>
<path d="M28.248 181.799C27.2612 184.342 24.0816 187.105 20.8471 187.832C19.9543 188.028 18.9988 188.138 18.0511 187.989C17.1035 187.84 16.1559 187.394 15.6468 186.721C15.1221 186.025 15.1221 185.172 15.3884 184.452C16.0854 182.613 18.3644 181.463 20.7922 181.165C23.2201 180.86 25.781 181.283 28.248 181.799Z" fill="#D45555"/>
<path d="M28.3107 182.253C25.9768 180.837 23.8153 177.214 23.6743 173.903C23.6352 172.996 23.6978 172.033 24.0189 171.125C24.34 170.218 24.9352 169.365 25.6949 168.989C26.4781 168.59 27.3161 168.747 27.9739 169.138C29.6656 170.147 30.3939 172.597 30.2608 175.03C30.1276 177.472 29.2583 179.913 28.3107 182.253Z" fill="#D45555"/>
<path d="M40.6926 186.698C40.1052 189.358 37.3798 192.575 34.2941 193.787C33.4483 194.116 32.5163 194.374 31.553 194.367C30.5897 194.359 29.5951 194.069 28.9842 193.482C28.3577 192.872 28.2245 192.035 28.389 191.276C28.7962 189.351 30.8795 187.864 33.229 187.199C35.5785 186.533 38.1708 186.557 40.6926 186.698Z" fill="#D45555"/>
<path d="M40.8179 187.128C38.2961 186.087 35.6098 182.832 34.9676 179.585C34.7875 178.692 34.7092 177.73 34.8815 176.791C35.0538 175.844 35.5237 174.913 36.2129 174.42C36.9256 173.911 37.7714 173.927 38.4919 174.224C40.3167 174.96 41.4131 177.276 41.6481 179.702C41.883 182.128 41.3975 184.679 40.8179 187.128Z" fill="#D45555"/>
<path d="M54.2806 189.523C54.077 192.238 51.8293 195.806 48.9472 197.442C48.1562 197.888 47.2712 198.271 46.3157 198.397C45.3603 198.53 44.3343 198.381 43.6451 197.88C42.9403 197.364 42.6897 196.55 42.7445 195.783C42.8776 193.819 44.7259 192.058 46.9658 191.072C49.19 190.078 51.7666 189.742 54.2806 189.523Z" fill="#D45555"/>
<path d="M54.4686 189.937C51.8293 189.257 48.7123 186.416 47.6158 183.286C47.3182 182.425 47.0989 181.486 47.1381 180.531C47.1773 179.569 47.5062 178.583 48.1171 177.996C48.7514 177.394 49.5973 177.292 50.3491 177.48C52.26 177.957 53.6697 180.085 54.2493 182.464C54.821 184.835 54.6957 187.426 54.4686 189.937Z" fill="#D45555"/>
<path d="M66.968 189.742C67.2577 191.902 66.083 195.063 64.0937 196.808C63.5455 197.285 62.919 197.731 62.1906 197.99C61.4701 198.248 60.6321 198.303 60.0212 198.021C59.3869 197.731 59.0579 197.137 58.9718 196.526C58.7525 194.969 59.9116 193.287 61.5014 192.152C63.0756 191.01 65.0335 190.321 66.968 189.742Z" fill="#D45555"/>
<path d="M67.1794 190.031C65.0022 189.93 62.0966 188.224 60.7261 185.954C60.3502 185.328 60.0291 184.632 59.9037 183.881C59.7784 183.122 59.8724 182.3 60.2562 181.737C60.6556 181.157 61.2978 180.946 61.9165 180.97C63.4907 181.024 64.9395 182.464 65.7775 184.225C66.6155 185.986 66.9444 188.036 67.1794 190.031Z" fill="#D45555"/>
<path d="M96.1958 201.754C88.3093 202.653 80.2505 200.682 73.2176 197.004C66.1848 193.326 60.1152 187.997 54.8366 182.065C38.766 164.02 29.7439 139.871 30.0493 115.722C33.9887 115.183 37.9593 116.38 41.6637 117.812C55.7216 123.243 68.2993 132.461 77.713 144.23C87.1267 155.999 93.3451 170.288 95.5458 185.195C96.1567 189.382 97.073 197.614 96.1958 201.754Z" fill="#6FCF97"/>
<path d="M35.0773 120.817C43.3084 130.536 50.6232 140.975 57.75 151.508C64.8847 162.048 71.8706 172.706 79.4908 182.903C83.7513 188.599 88.2075 194.155 92.977 199.437C93.3999 199.907 94.1831 199.289 93.7523 198.819C85.2315 189.374 77.7209 179.084 70.5235 168.614C63.3105 158.12 56.3795 147.423 48.9394 137.078C44.7807 131.295 40.4576 125.629 35.8526 120.199C35.4375 119.706 34.6622 120.324 35.0773 120.817Z" fill="white"/>
<path d="M82.9289 186.26C78.8643 185.36 74.8701 184.17 70.9777 182.707C67.0854 181.251 63.287 179.53 59.6296 177.542C57.562 176.415 55.5336 175.21 53.56 173.927C53.0275 173.583 52.4401 174.381 52.9805 174.733C56.5283 177.034 60.2327 179.092 64.0624 180.876C67.8842 182.66 71.8314 184.178 75.8726 185.414C78.1672 186.119 80.4854 186.721 82.8271 187.246C83.0856 187.3 83.344 187.05 83.3753 186.807C83.3988 186.518 83.1952 186.322 82.9289 186.26Z" fill="white"/>
<path d="M75.1912 175.015C75.8256 171.063 75.7081 167.025 75.1207 163.073C74.5177 159.059 73.4526 155.131 72.2308 151.273C71.5417 149.082 70.7976 146.906 70.0458 144.739C69.8343 144.136 68.9259 144.527 69.1373 145.13C70.4452 148.91 71.7374 152.697 72.7477 156.563C73.7502 160.389 74.4785 164.31 74.6117 168.277C74.69 170.492 74.5569 172.722 74.2044 174.905C74.1026 175.539 75.0894 175.648 75.1912 175.015Z" fill="white"/>
<path d="M62.128 156.492C56.8651 154.63 51.8606 152.079 47.279 148.894C45.9947 148.002 44.7416 147.063 43.5277 146.077C43.0343 145.678 42.4469 146.476 42.9481 146.883C47.3182 150.42 52.166 153.378 57.3115 155.647C58.776 156.297 60.264 156.883 61.7755 157.416C62.3707 157.635 62.731 156.703 62.128 156.492Z" fill="white"/>
<path d="M53.5287 143.291C53.4191 137.766 52.1425 132.296 49.8478 127.273C49.1978 125.856 48.4695 124.487 47.6628 123.157C47.3339 122.609 46.488 123.133 46.817 123.681C49.6051 128.259 51.4455 133.415 52.1817 138.729C52.3931 140.255 52.5106 141.781 52.5419 143.322C52.5498 143.964 53.5444 143.933 53.5287 143.291Z" fill="white"/>
<path d="M82.2084 240.277C77.3293 240.277 73.3821 236.326 73.3821 231.458C73.3821 226.583 77.3371 222.639 82.2084 222.639H190.959C191.594 222.639 192.103 222.131 192.103 221.497V221.458C192.103 220.855 191.609 220.362 191.006 220.362H80.6343C74.4081 220.362 69.3566 225.409 69.3566 231.63C69.3566 237.852 74.4081 242.899 80.6343 242.899H190.779C191.508 242.899 192.103 242.304 192.103 241.576V241.514C192.103 240.833 191.555 240.285 190.873 240.285H82.2084V240.277Z" fill="#504F6D"/>
<path d="M73.3821 231.45C73.3821 236.326 77.298 240.27 82.1223 240.27H190.936L190.779 239.659C189.393 234.268 189.393 228.618 190.779 223.234L190.936 222.624H82.1223C77.2901 222.631 73.3821 226.583 73.3821 231.45Z" fill="#EDEDF9"/>
<path d="M75.9431 233.203C75.9431 228.328 79.8589 224.384 84.6833 224.384H190.529C190.615 224.001 190.685 223.625 190.787 223.242L190.944 222.631H82.1223C77.2901 222.631 73.3821 226.583 73.3821 231.45C73.3821 235.058 75.528 238.149 78.598 239.518C76.9612 237.922 75.9431 235.684 75.9431 233.203Z" fill="#DCDCEF"/>
<path d="M153.868 229.353H106.314V230.003H153.868V229.353Z" fill="#DCDCEF"/>
<path d="M183.762 235.551H136.208V236.2H183.762V235.551Z" fill="#DCDCEF"/>
<path d="M123.662 229.76V239.886L128.274 236.13L132.809 239.753L132.277 229.721L123.662 229.76Z" fill="#D27C7B"/>
<path d="M198.211 220.361H92.4828C88.4182 220.361 85.121 217.067 85.121 213.006V211.081C85.121 207.019 88.4182 203.725 92.4828 203.725H198.219C202.283 203.725 205.58 207.019 205.58 211.081V213.006C205.58 217.067 202.283 220.361 198.211 220.361Z" fill="#9098B1"/>
<path opacity="0.43" d="M188.97 203.718H186.989V220.362H188.97V203.718Z" fill="white"/>
<path opacity="0.43" d="M180.199 203.718H178.217V220.362H180.199V203.718Z" fill="white"/>
<path d="M85.114 208.366V210.729L179.439 203.718H90.8233C87.6671 203.718 85.114 206.644 85.114 208.366Z" fill="#223263"/>
<path opacity="0.43" d="M101.553 203.718H99.5713V220.362H101.553V203.718Z" fill="white"/>
<path opacity="0.43" d="M109.94 203.718H107.959V220.362H109.94V203.718Z" fill="white"/>
<path d="M91.5908 192.277C91.5908 197.152 95.2404 201.096 99.7358 201.096H201.156L201.007 200.486C199.715 195.094 199.715 189.444 201.007 184.061L201.156 183.45H99.7358C95.2404 183.45 91.5908 187.402 91.5908 192.277Z" fill="#EDEDF9"/>
<path d="M99.8219 201.096C95.2795 201.096 91.5908 197.144 91.5908 192.277C91.5908 187.402 95.2717 183.458 99.8219 183.458H201.188C201.775 183.458 202.253 182.949 202.253 182.316V182.276C202.253 181.674 201.799 181.181 201.235 181.181H98.3574C92.5541 181.181 87.8473 186.228 87.8473 192.449C87.8473 198.67 92.5541 203.718 98.3574 203.718H201.015C201.697 203.718 202.253 203.123 202.253 202.395V202.333C202.253 201.652 201.736 201.104 201.101 201.104H99.8219V201.096Z" fill="#504F6D"/>
<path d="M93.9873 194.022C93.9873 189.147 97.6369 185.203 102.132 185.203H200.78C200.859 184.82 200.929 184.444 201.015 184.061L201.164 183.45H99.7436C95.2404 183.45 91.5986 187.402 91.5986 192.269C91.5986 195.877 93.5957 198.968 96.4621 200.337C94.9349 198.741 93.9873 196.503 93.9873 194.022Z" fill="#DCDCEF"/>
<path d="M154.511 190.196H106.957V190.845H154.511V190.196Z" fill="#DCDCEF"/>
<path d="M184.396 196.393H136.842V197.043H184.396V196.393Z" fill="#DCDCEF"/>
<path d="M177.465 134.096C181.71 134.096 185.148 130.661 185.148 126.42C185.148 122.178 181.71 118.743 177.465 118.743H82.8663C82.3181 118.743 81.8717 118.297 81.8717 117.749V117.718C81.8717 117.194 82.2946 116.771 82.8193 116.771H178.828C184.248 116.771 188.633 121.161 188.633 126.568C188.633 131.983 184.24 136.366 178.828 136.366H83.0308C82.3964 136.366 81.8795 135.849 81.8795 135.215V135.161C81.8795 134.566 82.3572 134.088 82.9524 134.088H177.465V134.096Z" fill="#D27C7B"/>
<path d="M185.148 126.42C185.148 130.661 181.741 134.096 177.544 134.096H82.8898L83.0229 133.564C84.229 128.877 84.229 123.963 83.0229 119.275L82.8898 118.743H177.544C181.741 118.743 185.148 122.178 185.148 126.42Z" fill="#EDEDF9"/>
<path d="M182.916 127.938C182.916 123.696 179.509 120.261 175.312 120.261H83.25C83.1796 119.932 83.1091 119.596 83.0308 119.267L82.8976 118.735H177.544C181.741 118.735 185.148 122.171 185.148 126.412C185.148 129.55 183.284 132.242 180.614 133.431C182.031 132.046 182.916 130.098 182.916 127.938Z" fill="#DCDCEF"/>
<path d="M156.5 124.596H115.133V125.16H156.5V124.596Z" fill="#DCDCEF"/>
<path d="M168.067 129.698H126.7V130.262H168.067V129.698Z" fill="#DCDCEF"/>
<path d="M192.072 181.141H86.3357C82.2711 181.141 78.9739 177.847 78.9739 173.785V166.328C78.9739 162.266 82.2711 158.972 86.3357 158.972H192.072C196.136 158.972 199.433 162.266 199.433 166.328V173.785C199.433 177.847 196.136 181.141 192.072 181.141Z" fill="#0177A2"/>
<path opacity="0.43" d="M182.822 158.965H180.841V181.142H182.822V158.965Z" fill="white"/>
<path opacity="0.43" d="M174.051 158.965H172.069V181.142H174.051V158.965Z" fill="white"/>
<path d="M78.9739 164.662V168.308L173.299 158.965H84.6754C81.5271 158.965 78.9739 161.516 78.9739 164.662Z" fill="#40BFFF"/>
<path opacity="0.43" d="M95.4049 158.965H93.4234V181.142H95.4049V158.965Z" fill="white"/>
<path opacity="0.43" d="M103.8 158.965H101.819V181.142H103.8V158.965Z" fill="white"/>
<path d="M83.4693 156.289C79.4908 156.289 76.272 152.337 76.272 147.47C76.272 142.595 79.4908 138.651 83.4693 138.651H172.132C172.649 138.651 173.064 138.142 173.064 137.508V137.469C173.064 136.866 172.665 136.373 172.171 136.373H82.1849C77.11 136.373 72.9905 141.421 72.9905 147.642C72.9905 153.863 77.11 158.91 82.1849 158.91H171.983C172.578 158.91 173.064 158.315 173.064 157.588V157.525C173.064 156.844 172.618 156.297 172.062 156.297H83.4693V156.289Z" fill="#504F6D"/>
<path d="M76.272 147.462C76.272 152.337 79.4595 156.281 83.3988 156.281H172.116L171.991 155.67C170.855 150.279 170.855 144.629 171.991 139.245L172.116 138.635H83.3988C79.4595 138.643 76.272 142.594 76.272 147.462Z" fill="#EDEDF9"/>
<path d="M78.363 149.215C78.363 144.339 81.5505 140.396 85.4899 140.396H171.78C171.85 140.012 171.905 139.637 171.991 139.253L172.116 138.643H83.3988C79.4595 138.643 76.272 142.594 76.272 147.462C76.272 151.069 78.0184 154.16 80.5246 155.53C79.1932 153.933 78.363 151.695 78.363 149.215Z" fill="#DCDCEF"/>
<path d="M141.894 145.365H103.127V146.014H141.894V145.365Z" fill="#DCDCEF"/>
<path d="M166.258 151.562H127.491V152.212H166.258V151.562Z" fill="#DCDCEF"/>
<path d="M138.166 151.922V162.048L141.925 158.292L145.622 161.923L145.191 151.891L138.166 151.922Z" fill="#223263"/>
<path d="M160.087 29.3706C159.327 33.4163 157.134 37.1802 153.994 39.833C153.884 39.9269 153.767 40.0286 153.743 40.1773C153.72 40.3182 153.806 40.4512 153.9 40.5607C154.276 40.999 154.847 41.2024 155.404 41.3746C157.479 42.0162 159.656 42.3449 161.833 42.3527C162.241 42.3527 162.679 42.3293 162.992 42.0632C163.22 41.8676 163.329 41.578 163.431 41.3041C164.238 39.0739 164.903 36.7968 165.42 34.4805C165.444 34.3788 165.467 34.2692 165.444 34.1597C165.405 33.9484 165.201 33.8154 165.021 33.7058C163.674 32.8528 162.468 31.773 161.473 30.5287" fill="#FF948C"/>
<path d="M165.428 34.1675C165.389 33.9562 165.185 33.8232 165.005 33.7136C163.658 32.8607 162.452 31.7808 161.457 30.5366L160.079 29.3706C160.009 29.7306 159.922 30.0905 159.828 30.4427C159.962 30.7948 160.048 31.1782 160.063 31.6165C160.134 33.2363 161.794 34.9344 162.413 36.429C163.243 38.4323 163.251 40.3573 162.601 42.2588C162.734 42.2197 162.867 42.1571 162.977 42.0632C163.204 41.8676 163.314 41.578 163.415 41.3041C164.222 39.0739 164.888 36.7968 165.405 34.4805C165.428 34.3788 165.452 34.2692 165.428 34.1675Z" fill="#EF7E7B"/>
<path d="M176.494 40.2087C175.703 38.4871 175.609 36.4526 176.251 34.6684C176.588 33.7294 177.121 32.853 177.277 31.867C177.505 30.4271 176.894 28.9873 176.189 27.7117C175.484 26.4362 174.654 25.1842 174.372 23.7522C174.004 21.8584 174.724 19.7926 176.189 18.5405L177.865 19.417C177.168 21.4594 177.34 23.7913 178.327 25.7085C178.867 26.7492 179.643 27.6961 179.932 28.8386C180.418 30.7714 179.408 32.7356 178.39 34.4415C177.371 36.1552 176.267 38.0333 176.565 39.9974" fill="#1E1E1E"/>
<path d="M169.344 9.11096C171.756 9.33789 174.043 10.6134 175.5 12.5384C176.956 14.4635 177.559 17.0223 177.121 19.3934C176.901 20.5906 176.424 21.7331 176.244 22.9382C176.063 24.1433 176.228 25.4971 177.089 26.3579C177.418 26.6787 177.685 26.9135 177.982 27.2656C178.28 27.6177 178.46 27.8994 178.202 28.2751C177.857 28.7681 177.191 28.9324 176.698 29.2845C176.424 29.4802 176.275 29.7932 176.126 30.0905C174.873 32.6572 173.283 35.0674 171.411 37.2272C171.31 37.3446 171.2 37.4619 171.059 37.5167C170.84 37.595 170.597 37.5089 170.378 37.415C167.973 36.3977 165.546 35.3804 163.376 33.9249C161.207 32.4694 159.28 30.5444 158.254 28.142C157.283 25.8805 157.173 23.2747 157.941 20.935" fill="#FF948C"/>
<path d="M175.539 23.8852C175.539 24.2608 175.32 24.5738 175.053 24.5738C174.787 24.5738 174.568 24.2686 174.568 23.8852C174.568 23.5017 174.787 23.1965 175.053 23.1965C175.32 23.1965 175.539 23.5017 175.539 23.8852Z" fill="#1E1E1E"/>
<path opacity="0.51" d="M174.278 28.1108C174.278 29.222 173.377 30.1219 172.265 30.1219C171.153 30.1219 170.252 29.222 170.252 28.1108C170.252 26.9996 171.153 26.0997 172.265 26.0997C173.377 26.0997 174.278 26.9996 174.278 28.1108Z" fill="#F96662"/>
<path d="M175.319 31.4913L172.939 30.9983C172.939 30.9983 174.004 32.1251 174.575 32.2895C175.155 32.4538 175.319 31.4913 175.319 31.4913Z" fill="#F96662"/>
<path d="M155.826 13.5401C152.443 14.2914 149.522 13.4462 148.339 12.9454C147.157 12.4368 146.076 11.5995 145.496 10.4491C144.925 9.30666 144.893 7.95288 145.16 6.70084C145.904 3.24989 149.013 0.432796 152.529 0.0493579C154.55 -0.177575 156.688 0.378019 158.215 1.71614C159.742 3.05426 160.572 5.21404 160.149 7.19383" fill="#1E1E1E"/>
<path d="M178.397 10.9031C177.082 9.24411 172.876 5.47233 167.049 5.32365C163.588 5.11236 160.831 5.4645 158.45 6.91218C156.069 8.35985 154.761 10.4492 153.344 12.8437C151.644 15.7078 150.571 17.5858 150.689 20.9194C150.806 24.253 152.318 27.297 154.934 29.3707C155.631 29.9263 157.455 31.3896 158.348 31.4914C159.452 31.6166 159.437 31.867 160.259 31.1157C161.081 30.3723 161.645 29.3707 162.06 28.3378C162.515 27.2031 162.93 25.8728 164.042 25.3563C164.95 24.9338 165.945 25.2233 166.955 25.4894C166.947 25.732 166.947 25.9745 166.971 26.2171C167.128 27.9778 167.973 29.5898 168.663 31.2175C169.352 32.8451 169.908 34.6528 169.454 36.3587C169.14 37.5246 168.396 38.5185 167.872 39.6062C166.877 41.6799 166.728 44.137 167.472 46.3124L167.59 46.0698C167.48 43.6597 169.038 41.539 170.487 39.5983C171.928 37.6655 173.393 35.4196 173.048 33.0329C172.845 31.6244 172.022 30.388 171.505 29.0655C171.02 27.8291 170.808 26.491 170.855 25.1607C171.012 25.0825 171.177 25.0042 171.333 24.926C174.012 23.5487 176.667 21.8741 178.303 19.3465C179.909 16.8268 180.261 13.2663 178.397 10.9031Z" fill="#1E1E1E"/>
<path d="M152.623 15.2226C152.623 15.2226 151.589 15.2226 153.336 12.8515C155.082 10.4805 159.828 5.73833 159.828 5.73833C159.828 5.73833 160.604 5.26882 159.233 8.2346C157.863 11.2004 154.659 13.9392 152.623 15.2226Z" fill="#D45555"/>
<path d="M160.048 5.83229C160.048 5.83229 160.706 5.5271 161.708 6.92C162.703 8.30507 164.003 11.5134 164.003 11.5134C164.003 11.5134 164.12 12.0221 162.734 10.7387C161.348 9.45539 160.392 7.18606 160.048 5.83229Z" fill="#D45555"/>
<path d="M160.048 6.01222C160.048 6.01222 160.063 5.3862 161.41 4.8619C162.757 4.33761 165.522 3.98547 165.522 3.98547C165.522 3.98547 165.945 3.9933 164.543 4.8619C163.141 5.73051 161.168 6.02004 160.048 6.01222Z" fill="#D45555"/>
<path d="M161.011 5.95749C161.011 6.48178 160.58 6.91217 160.055 6.91217C159.531 6.91217 159.1 6.48178 159.1 5.95749C159.1 5.4332 159.531 5.00281 160.055 5.00281C160.58 5.00281 161.011 5.4332 161.011 5.95749Z" fill="#D45555"/>
<path d="M165.49 25.2546C165.89 26.2014 165.905 28.5803 164.911 28.8151C164.253 28.9638 163.556 28.729 163.031 28.2986C162.514 27.876 162.154 27.2813 161.88 26.6631C161.528 25.8806 161.3 24.9963 161.504 24.159C161.716 23.3217 162.467 22.5862 163.329 22.6331C163.932 22.6722 164.464 23.0713 164.801 23.5721C165.138 24.0886 165.318 24.6755 165.49 25.2546Z" fill="#FF948C"/>
<path d="M165.209 27.5396C162.656 27.5396 161.559 25.2781 161.927 23.3374C161.732 23.58 161.583 23.8695 161.504 24.1669C161.293 25.0042 161.528 25.8806 161.88 26.671C162.154 27.2813 162.515 27.8761 163.032 28.3064C163.548 28.729 164.253 28.9716 164.911 28.8229C165.365 28.7212 165.608 28.1656 165.702 27.5161C165.538 27.5239 165.381 27.5396 165.209 27.5396Z" fill="#EF7E7B"/>
<path d="M200.506 149.543C200.906 153.065 201.705 156.852 198.572 162.353C198.219 162.964 197.703 163.519 197.64 164.224C197.515 165.483 198.713 166.493 199.903 166.9C201.101 167.299 202.417 167.346 203.545 167.925C204.9 168.621 205.761 169.975 206.842 171.047C208.275 172.471 210.155 173.442 212.144 173.786C212.371 173.825 212.685 173.817 212.755 173.59C212.794 173.489 212.755 173.371 212.716 173.27C212.207 172.002 210.899 171.266 210.037 170.21C209.192 169.169 208.792 167.847 208.134 166.673C207.602 165.718 206.725 163.918 206.31 162.909C205.636 161.273 205.918 159.528 206.294 157.799C206.67 156.07 207.523 151.907 208.197 150.099" fill="#FF948C"/>
<path d="M157.596 93.9605C167.331 90.7599 177.646 89.3044 187.889 89.6879C195.494 89.9774 203.749 91.652 208.589 97.5132C212.074 101.739 212.457 103.758 212.779 109.22C213.076 114.181 212.418 122.476 211.98 127.429C211.244 135.849 211.056 144.582 209.168 152.822C209.105 153.096 209.035 153.386 208.847 153.589C208.651 153.8 208.354 153.894 208.072 153.965C205.73 154.583 203.247 154.653 200.874 154.168C200.53 154.098 200.17 154.004 199.935 153.753C199.684 153.487 199.613 153.096 199.566 152.728C198.791 146.898 198.133 137.813 197.64 131.952C197.24 127.226 197.311 125.7 195.76 121.224C195.345 120.026 194.867 118.806 193.99 117.882C192.205 116.004 189.299 115.856 186.707 115.996C177.951 116.45 169.101 118.688 160.518 116.881" fill="#080835"/>
<path d="M189.213 115.84C188.633 119.338 186.738 122.601 183.989 124.847C183.441 125.293 182.838 125.731 182.58 126.388C182.117 127.562 182.987 128.861 184.028 129.581C185.07 130.293 186.323 130.7 187.247 131.561C188.359 132.602 188.821 134.135 189.565 135.466C190.552 137.226 192.095 138.674 193.92 139.543C194.131 139.644 194.429 139.715 194.562 139.527C194.625 139.433 194.625 139.316 194.609 139.206C194.468 137.845 193.411 136.78 192.87 135.528C192.338 134.3 192.322 132.915 192.009 131.608C191.758 130.544 191.406 128.572 191.281 127.484C191.077 125.731 191.641 124.933 192.479 123.368C193.309 121.811 195.533 119.08 196.677 117.522" fill="#FF948C"/>
<path d="M139.114 99.6103C138.691 103.726 138.573 108.492 141.032 111.904C144.643 116.912 151.903 117.828 158.074 118.133C164.245 118.438 170.433 117.898 175.774 114.791C181.115 111.693 185.759 107.514 190.137 103.163C196.52 96.8323 202.449 90.0557 208.22 83.1616C198.838 92.3954 190.004 102.967 186.863 115.746C186.801 116.012 186.738 116.294 186.824 116.552C186.942 116.912 187.302 117.123 187.639 117.311C190.247 118.72 192.855 120.128 195.47 121.545C195.831 121.74 196.214 121.936 196.622 121.889C197.107 121.826 197.475 121.427 197.796 121.052C202.018 116.036 205.793 110.652 209.434 105.205C214.721 97.3097 219.905 88.7958 220.54 79.3194C220.704 76.9092 220.477 74.2564 218.832 72.4801C217.015 70.516 214.047 70.2186 211.369 70.2421C200.428 70.3282 188.665 77.23 178.883 82.1287C169.109 87.0351 157.737 100.111 150.767 85.3996" fill="#313155"/>
<path d="M218.934 52.917L232.467 35.4197C232.82 34.958 233.556 35.1771 233.603 35.7561L234.707 48.8557L226.413 61.8456L218.934 52.917Z" fill="#D45555"/>
<path d="M212.551 56.3992L231.261 34.825L234.261 48.5505L212.551 56.3992Z" fill="#ECEBF2"/>
<path d="M210.468 56.3992L220.18 38.7454L234.707 48.8634L210.468 56.3992Z" fill="white"/>
<path d="M201.806 64.1619C204.258 60.1945 212.685 46.8602 215.003 43.198C215.355 42.6424 216.036 42.4076 216.655 42.6189L234.715 48.8635L221.205 70.0152C221.002 70.3282 220.626 70.4769 220.266 70.383L202.386 65.6096C201.751 65.4374 201.462 64.7175 201.806 64.1619Z" fill="#D45555"/>
<path d="M234.308 48.7227C234.112 49.4817 233.619 50.1938 232.741 50.7103C230.384 52.0953 228.724 54.6542 226.562 56.3679C224.346 58.1208 221.949 59.7798 219.451 61.1179C214.407 63.8254 208.025 65.2809 202.331 65.5861C202.347 65.5939 202.362 65.6018 202.386 65.6096L220.266 70.383C220.626 70.4769 221.002 70.3282 221.205 70.0152L234.715 48.8635L234.308 48.7227Z" fill="#D45555"/>
<path d="M156.273 37.321C149.569 41.4919 144.964 48.4877 142.426 55.9608C139.889 63.434 139.247 71.4158 139.074 79.3036C138.902 87.1915 139.184 95.1107 138.409 102.959C138.354 103.499 138.409 104.219 138.941 104.352C139.294 104.438 139.63 104.196 139.905 103.961C147.807 97.4817 158.035 94.7038 167.081 89.946C167.613 89.6643 168.169 89.3591 168.49 88.8505C168.694 88.5296 168.788 88.154 168.882 87.7784C169.234 86.3464 169.587 84.9144 169.939 83.4823C171.482 77.2065 173.033 70.8836 173.268 64.4278C173.51 57.9719 172.054 52.9168 168.545 47.4861C167.879 46.461 165.444 42.1101 164.567 41.2572C162.335 39.0739 159.586 40.4746 156.273 37.321Z" fill="#E4DFDF"/>
<path d="M169.994 47.8617C169.469 49.0277 168.388 49.9197 166.924 49.8337C161.52 49.505 155.717 49.4972 150.297 48.6834C149.733 54.9514 150.9 61.5403 154.448 66.8223C158.419 72.7304 164.621 76.4631 170.887 79.5228C172.062 74.5459 173.072 69.5221 173.26 64.42C173.463 58.7388 172.594 52.8855 169.994 47.8617Z" fill="#ACACAC"/>
<path d="M211.815 65.4216C212.833 65.9928 214.157 65.4686 214.964 64.6234C215.778 63.7861 216.326 62.8862 217.047 61.9707C217.916 60.8595 219.733 60.03 221.464 58.8484C221.668 58.7075 221.942 58.8875 221.879 59.1301C221.597 60.163 220.039 61.8376 219.78 62.8001C219.749 62.9097 219.725 63.0427 219.796 63.1288C219.866 63.2149 219.992 63.2149 220.101 63.1992C222.036 63.0036 223.492 61.3681 225.301 60.6717C225.568 60.5699 225.857 60.4917 226.132 60.5699C226.719 60.7499 226.28 61.9394 226.132 62.5341C225.834 63.7705 224.847 65.1321 223.9 65.9694C220.446 68.9899 216.303 69.6629 211.76 69.0291" fill="#FF948C"/>
<path d="M150.618 44.8176C153.109 43.0256 156.328 42.916 159.272 43.4325C164.927 44.4263 170.127 47.4469 174.873 50.9448C179.29 54.2001 183.449 57.9171 188.242 60.4603C194.664 63.8643 201.955 64.9833 209.09 64.7642C210.445 64.7251 211.878 64.6546 213.084 65.3354C214.29 66.0162 215.12 67.7535 214.423 69.0211C214 69.7958 213.162 70.1636 212.387 70.4845C206.733 72.8086 201.047 75.1483 195.134 76.5021C189.221 77.8559 183.01 78.208 177.16 76.5569C169.101 74.2875 162.303 68.4342 156.265 62.1819C154.479 60.3351 152.709 58.3944 151.535 56.0312C150.36 53.6758 147.901 48.1981 150.618 44.8176Z" fill="#E4DFDF"/>
<path d="M150 52.4999C148.667 47.3333 149.5 38.4999 163.5 44.4999" stroke="black" stroke-width="0.1"/>
<g opacity="0.46">
<path opacity="0.46" d="M159.296 50.0684C160.322 50.0684 160.322 48.472 159.296 48.472C158.27 48.4799 158.27 50.0684 159.296 50.0684Z" fill="#E4DFDF"/>
</g>
<g opacity="0.46">
<path opacity="0.46" d="M172.156 67.1587C173.181 67.1587 173.181 65.5624 172.156 65.5624C171.13 65.5702 171.13 67.1587 172.156 67.1587Z" fill="#E4DFDF"/>
</g>
<g opacity="0.46">
<path opacity="0.46" d="M173.902 54.5601C174.928 54.5601 174.928 52.9637 173.902 52.9637C172.876 52.9716 172.876 54.5601 173.902 54.5601Z" fill="#E4DFDF"/>
</g>
<g opacity="0.46">
<path opacity="0.46" d="M162.546 61.6733C163.572 61.6733 163.572 60.0769 162.546 60.0769C161.52 60.0769 161.512 61.6733 162.546 61.6733Z" fill="#E4DFDF"/>
</g>
<g opacity="0.46">
<path opacity="0.46" d="M187.138 66.165C188.163 66.165 188.163 64.5686 187.138 64.5686C186.112 64.5686 186.112 66.165 187.138 66.165Z" fill="#E4DFDF"/>
</g>
<g opacity="0.46">
<path opacity="0.46" d="M184.412 75.391C185.438 75.391 185.438 73.7947 184.412 73.7947C183.386 73.8025 183.386 75.391 184.412 75.391Z" fill="#E4DFDF"/>
</g>
<g opacity="0.46">
<path opacity="0.46" d="M202.738 69.6551C203.764 69.6551 203.764 68.0587 202.738 68.0587C201.712 68.0587 201.712 69.6551 202.738 69.6551Z" fill="#E4DFDF"/>
</g>
<g opacity="0.46">
<path opacity="0.46" d="M165.287 85.8691C166.313 85.8691 166.313 84.2727 165.287 84.2727C164.261 84.2805 164.261 85.8691 165.287 85.8691Z" fill="white"/>
</g>
<g opacity="0.46">
<path opacity="0.46" d="M155.302 73.5208C156.328 73.5208 156.328 71.9244 155.302 71.9244C154.276 71.9323 154.276 73.5208 155.302 73.5208Z" fill="white"/>
</g>
<g opacity="0.46">
<path opacity="0.46" d="M152.553 89.6095C153.579 89.6095 153.579 88.0132 152.553 88.0132C151.527 88.021 151.527 89.6095 152.553 89.6095Z" fill="white"/>
</g>
<g opacity="0.46">
<path opacity="0.46" d="M142.943 98.4677C143.969 98.4677 143.969 96.8713 142.943 96.8713C141.917 96.8792 141.917 98.4677 142.943 98.4677Z" fill="white"/>
</g>
<g opacity="0.46">
<path opacity="0.46" d="M143.319 78.6385C144.345 78.6385 144.345 77.0421 143.319 77.0421C142.293 77.0421 142.293 78.6385 143.319 78.6385Z" fill="white"/>
</g>
<g opacity="0.46">
<path opacity="0.46" d="M148.809 63.1679C149.835 63.1679 149.835 61.5715 148.809 61.5715C147.783 61.5715 147.783 63.1679 148.809 63.1679Z" fill="white"/>
</g>
<g opacity="0.46">
<path opacity="0.46" d="M148.809 51.1952C149.835 51.1952 149.835 49.5989 148.809 49.5989C147.783 49.5989 147.783 51.1952 148.809 51.1952Z" fill="white"/>
</g>
<g opacity="0.46">
<path opacity="0.46" d="M168.287 76.5179C169.313 76.5179 169.313 74.9215 168.287 74.9215C167.261 74.9215 167.261 76.5179 168.287 76.5179Z" fill="white"/>
</g>
<g opacity="0.46">
<path opacity="0.46" d="M141.447 66.165C142.473 66.165 142.473 64.5686 141.447 64.5686C140.421 64.5686 140.414 66.165 141.447 66.165Z" fill="white"/>
</g>
</svg>
