<svg width="291" height="256" viewBox="0 0 291 256" fill="none" xmlns="http://www.w3.org/2000/svg">
<ellipse cx="145.128" cy="232.424" rx="95.1279" ry="17.4244" fill="#CBD0DF"/>
<path d="M92.9222 206.488C67.1011 208.804 43.324 191.714 26.7678 171.783C10.7363 152.486 -1.41063 128.361 0.132219 103.328C1.17383 86.5032 8.59045 70.1484 20.5651 58.2696C29.1408 49.7635 40.8414 43.3546 52.863 44.5989C67.336 46.0935 79.0757 58.0975 93.5409 59.6625C108.272 61.251 121.586 51.8294 134.234 44.1215C145.622 37.1805 158.027 31.202 171.317 30.1456C184.616 29.0892 198.979 33.7687 206.725 44.6145C212.755 53.0658 214.314 64.3342 221.378 71.9482C228.755 79.8908 240.26 81.9958 250.527 85.4859C268.015 91.4409 284.673 104.118 288.934 122.077C292.92 138.886 285.222 156.477 274.43 169.968C253.997 195.501 221.573 211.027 188.845 210.933C182.117 210.917 175.241 210.236 169.14 207.404" fill="#EBF0FF"/>
<path d="M87.1956 141.379C83.6401 139.446 80.2568 137.208 77.0849 134.704C73.9444 132.224 71.0075 129.485 68.3134 126.527C65.588 123.538 63.0975 120.329 60.889 116.941C58.6961 113.576 56.7695 110.039 55.1483 106.369C53.5272 102.699 52.2114 98.888 51.2246 94.9989C51.0993 94.5137 50.9819 94.0285 50.8722 93.5434C50.8174 93.3243 50.4885 93.4338 50.5355 93.6529C51.4439 97.6047 52.697 101.478 54.2712 105.227C55.8297 108.944 57.6936 112.535 59.8317 115.947C61.9697 119.367 64.3897 122.606 67.0447 125.643C69.7231 128.695 72.6443 131.535 75.777 134.11C78.894 136.668 82.2225 138.969 85.7233 140.972C86.154 141.223 86.5926 141.465 87.039 141.7C87.2348 141.802 87.3914 141.489 87.1956 141.379Z" fill="#D45555"/>
<path d="M51.5771 96.3996C49.0944 95.2649 46.5256 91.9235 45.9931 88.6526C45.8443 87.7527 45.7973 86.7902 46.0087 85.859C46.2202 84.9199 46.7136 84.0044 47.4184 83.5349C48.1468 83.0497 48.9926 83.0966 49.7053 83.4175C51.4987 84.2157 52.5169 86.5632 52.6735 89.0047C52.8145 91.4384 52.2428 93.9659 51.5771 96.3996Z" fill="#D45555"/>
<path d="M54.6862 105C52.2897 106.299 48.0685 106.338 45.1316 104.788C44.3249 104.366 43.5261 103.826 42.9074 103.09C42.2808 102.363 41.8501 101.416 41.9049 100.571C41.9597 99.6941 42.5079 99.0524 43.1893 98.6768C44.9123 97.7299 47.3949 98.3325 49.439 99.6784C51.4674 101.024 53.1434 103.004 54.6862 105Z" fill="#D45555"/>
<path d="M54.4435 105.383C53.5898 102.793 54.2947 98.6377 56.3387 96.024C56.9026 95.3041 57.5683 94.6155 58.3985 94.1303C59.2286 93.6452 60.2389 93.3869 61.0612 93.5904C61.9149 93.7938 62.4553 94.4512 62.6981 95.1867C63.3324 97.0492 62.2908 99.3889 60.607 101.157C58.9232 102.918 56.6755 104.217 54.4435 105.383Z" fill="#D45555"/>
<path d="M60.9751 116.792C58.8057 118.436 54.6392 119.124 51.5066 118.036C50.6451 117.739 49.7758 117.324 49.0474 116.698C48.3191 116.072 47.7473 115.204 47.669 114.359C47.5907 113.49 48.0293 112.762 48.648 112.293C50.2065 111.088 52.7518 111.315 54.976 112.332C57.1924 113.349 59.1425 115.055 60.9751 116.792Z" fill="#D45555"/>
<path d="M60.7871 117.207C59.5497 114.781 59.6124 110.563 61.2335 107.668C61.6799 106.87 62.236 106.087 62.98 105.485C63.724 104.882 64.6873 104.475 65.5331 104.546C66.4024 104.616 67.0368 105.187 67.3971 105.868C68.3056 107.613 67.6399 110.078 66.2458 112.081C64.8439 114.093 62.8234 115.712 60.7871 117.207Z" fill="#D45555"/>
<path d="M69.4803 127.748C67.5615 129.681 63.536 130.94 60.2781 130.314C59.3852 130.142 58.4611 129.853 57.6544 129.336C56.8478 128.82 56.1586 128.037 55.9628 127.216C55.7592 126.363 56.0959 125.588 56.6363 125.032C58.0069 123.624 60.5678 123.483 62.9095 124.179C65.2512 124.876 67.4284 126.284 69.4803 127.748Z" fill="#D45555"/>
<path d="M69.355 128.186C67.7887 125.956 67.2561 121.777 68.4543 118.686C68.7833 117.833 69.2297 116.98 69.8797 116.276C70.5376 115.572 71.4226 115.032 72.2684 114.985C73.1455 114.938 73.8504 115.407 74.2968 116.033C75.4402 117.63 75.127 120.173 74.0305 122.348C72.9341 124.532 71.1641 126.425 69.355 128.186Z" fill="#D45555"/>
<path d="M78.988 136.136C77.8054 137.967 74.8607 139.611 72.2136 139.65C71.4852 139.658 70.7177 139.587 70.005 139.313C69.2845 139.04 68.6188 138.539 68.3291 137.928C68.0315 137.295 68.1646 136.629 68.5014 136.113C69.3472 134.783 71.3208 134.258 73.263 134.423C75.2053 134.587 77.1397 135.33 78.988 136.136Z" fill="#D45555"/>
<path d="M78.9645 136.504C77.3747 135.017 76.2704 131.832 76.7011 129.219C76.8186 128.499 77.0222 127.763 77.4217 127.106C77.8211 126.449 78.4241 125.877 79.082 125.705C79.7555 125.525 80.3899 125.776 80.8441 126.198C82.0032 127.263 82.1755 129.297 81.6664 131.183C81.1652 133.061 80.0844 134.83 78.9645 136.504Z" fill="#D45555"/>
<path d="M80.7345 213.661C77.9464 216.619 74.1324 218.505 70.1617 219.382C66.191 220.258 62.0559 220.172 58.0304 219.593C45.7738 217.824 34.269 211.345 26.406 201.783C27.7687 200.272 29.7188 199.427 31.6454 198.77C38.9446 196.258 46.9172 195.726 54.4905 197.228C62.0637 198.731 69.2219 202.283 75.0017 207.393C76.6385 208.833 79.7164 211.752 80.7345 213.661Z" fill="#6FCF97"/>
<path d="M30.0634 202.127C36.4932 203.215 42.8056 204.897 49.0788 206.665C55.352 208.442 61.6095 210.312 67.961 211.791C71.5088 212.621 75.0878 213.325 78.7061 213.818C79.0272 213.865 79.129 213.364 78.8079 213.317C72.3546 212.433 66.0109 210.876 59.7299 209.146C53.4332 207.417 47.1913 205.507 40.8633 203.911C37.3234 203.019 33.76 202.229 30.1652 201.618C29.8441 201.571 29.7423 202.072 30.0634 202.127Z" fill="white"/>
<path d="M70.428 211.971C68.5405 212.957 66.5826 213.81 64.5777 214.522C62.5728 215.234 60.513 215.813 58.4298 216.244C57.2472 216.486 56.0568 216.682 54.8586 216.831C54.5375 216.87 54.5688 217.378 54.8977 217.339C57.0436 217.073 59.1738 216.658 61.2649 216.095C63.3481 215.532 65.4 214.827 67.3893 213.974C68.517 213.489 69.6291 212.965 70.7178 212.394C70.8431 212.331 70.8587 212.143 70.7882 212.041C70.6943 211.916 70.5455 211.908 70.428 211.971Z" fill="white"/>
<path d="M63.677 210.124C62.6198 208.364 61.2414 206.822 59.7064 205.468C58.1479 204.099 56.4327 202.909 54.6784 201.798C53.6838 201.172 52.6735 200.562 51.6632 199.959C51.3813 199.795 51.1542 200.249 51.4361 200.413C53.1982 201.462 54.9525 202.518 56.6285 203.7C58.2888 204.866 59.863 206.165 61.2257 207.675C61.9854 208.52 62.6746 209.436 63.2541 210.406C63.4264 210.688 63.8493 210.406 63.677 210.124Z" fill="white"/>
<path d="M52.4464 207.174C49.7679 208.184 46.972 208.833 44.1213 209.099C43.3225 209.177 42.5236 209.217 41.7248 209.232C41.3959 209.24 41.435 209.749 41.7639 209.741C44.646 209.686 47.5202 209.248 50.2848 208.434C51.068 208.207 51.8512 207.941 52.6187 207.652C52.9163 207.542 52.7518 207.065 52.4464 207.174Z" fill="white"/>
<path d="M44.7165 204.842C42.8448 202.714 40.5422 200.992 37.9813 199.779C37.2607 199.443 36.5167 199.145 35.7649 198.887C35.4516 198.785 35.295 199.263 35.6083 199.372C38.2162 200.249 40.6362 201.657 42.6803 203.496C43.2677 204.021 43.8159 204.584 44.3406 205.179C44.5599 205.429 44.9358 205.085 44.7165 204.842Z" fill="white"/>
<path d="M201.393 217.113C200.25 210.086 201.675 202.777 204.683 196.321C207.69 189.865 212.209 184.2 217.307 179.223C232.814 164.065 254.109 154.957 275.795 154.213C276.445 157.719 275.544 161.326 274.416 164.707C270.132 177.532 262.394 189.192 252.229 198.121C242.063 207.049 229.501 213.224 216.227 215.829C212.491 216.557 205.145 217.723 201.393 217.113Z" fill="#6FCF97"/>
<path d="M271.432 158.94C263.06 166.726 254.007 173.714 244.851 180.553C235.696 187.392 226.431 194.099 217.597 201.353C212.663 205.406 207.87 209.64 203.328 214.131C202.921 214.53 203.508 215.203 203.915 214.796C212.029 206.76 220.941 199.6 230.034 192.706C239.15 185.796 248.454 179.145 257.421 172.039C262.434 168.072 267.336 163.956 272.02 159.605C272.443 159.214 271.855 158.548 271.432 158.94Z" fill="white"/>
<path d="M214.731 204.577C215.365 200.899 216.266 197.268 217.409 193.715C218.553 190.162 219.939 186.688 221.568 183.331C222.492 181.429 223.487 179.567 224.552 177.744C224.841 177.251 224.097 176.758 223.808 177.259C221.889 180.53 220.205 183.934 218.764 187.447C217.323 190.945 216.125 194.552 215.193 198.215C214.66 200.296 214.214 202.401 213.846 204.522C213.807 204.757 214.042 204.984 214.261 204.991C214.519 205.007 214.684 204.811 214.731 204.577Z" fill="white"/>
<path d="M224.489 197.166C228.06 197.565 231.686 197.291 235.203 196.595C238.774 195.891 242.259 194.764 245.674 193.512C247.608 192.8 249.527 192.041 251.446 191.274C251.978 191.062 251.587 190.264 251.054 190.475C247.718 191.806 244.374 193.128 240.943 194.192C237.552 195.249 234.059 196.071 230.512 196.36C228.522 196.524 226.525 196.501 224.544 196.274C223.98 196.211 223.925 197.096 224.489 197.166Z" fill="white"/>
<path d="M240.56 184.677C242.009 179.888 244.084 175.294 246.747 171.053C247.491 169.864 248.282 168.706 249.112 167.579C249.449 167.117 248.705 166.632 248.368 167.094C245.376 171.163 242.933 175.623 241.108 180.334C240.591 181.672 240.129 183.034 239.714 184.403C239.549 184.943 240.395 185.225 240.56 184.677Z" fill="white"/>
<path d="M252.041 176.421C256.998 176.085 261.846 174.715 266.263 172.446C267.509 171.804 268.707 171.092 269.866 170.31C270.344 169.989 269.835 169.253 269.357 169.574C265.363 172.266 260.812 174.136 256.082 175.013C254.727 175.263 253.357 175.435 251.978 175.529C251.399 175.568 251.469 176.46 252.041 176.421Z" fill="white"/>
<path d="M83.4051 130.878C82.3086 126.989 81.5568 123.006 81.1339 118.983C80.7188 115.008 80.6326 110.994 80.8676 106.995C81.1025 102.957 81.6743 98.9428 82.5592 94.9911C83.4364 91.0706 84.6268 87.2284 86.1305 83.5036C87.6342 79.7787 89.4433 76.1791 91.5422 72.7595C91.8007 72.3369 92.0748 71.9065 92.3411 71.4918C92.4664 71.304 92.1531 71.1396 92.0278 71.3274C89.8271 74.7393 87.924 78.3389 86.342 82.0715C84.7678 85.7807 83.4912 89.6151 82.5358 93.5356C81.5803 97.456 80.9381 101.447 80.6248 105.469C80.3037 109.515 80.3115 113.584 80.6561 117.63C80.9929 121.644 81.6664 125.635 82.6767 129.532C82.802 130.017 82.9352 130.502 83.0683 130.98C83.131 131.206 83.4677 131.097 83.4051 130.878Z" fill="#D45555"/>
<path d="M90.7904 74.0037C89.8662 71.437 90.4693 67.2661 92.4429 64.6055C92.9833 63.87 93.6411 63.1657 94.4556 62.6649C95.2701 62.1562 96.2726 61.8745 97.1027 62.0545C97.9564 62.2345 98.5124 62.8762 98.7866 63.6039C99.4679 65.4507 98.489 67.8139 96.8521 69.6215C95.2153 71.4292 92.9989 72.783 90.7904 74.0037Z" fill="#D45555"/>
<path d="M86.7962 82.228C84.1961 81.4142 81.22 78.425 80.2802 75.2479C80.0218 74.3715 79.8495 73.4246 79.9434 72.4699C80.0296 71.5152 80.4134 70.5449 81.0477 69.9893C81.7134 69.4181 82.5592 69.3633 83.2954 69.5824C85.175 70.1536 86.4829 72.3525 86.9372 74.7549C87.4071 77.1494 87.1564 79.7318 86.7962 82.228Z" fill="#D45555"/>
<path d="M86.3498 82.3141C87.6107 79.8961 91.0801 77.5015 94.3773 77.1416C95.2858 77.0398 96.2491 77.0399 97.1732 77.2981C98.0974 77.5563 98.9902 78.0963 99.4209 78.824C99.8673 79.5752 99.7733 80.4204 99.4209 81.109C98.5281 82.8618 96.1316 83.7539 93.6881 83.7774C91.2446 83.8087 88.7463 83.1044 86.3498 82.3141Z" fill="#D45555"/>
<path d="M82.7316 94.952C80.0374 94.5451 76.6385 92.041 75.2288 89.0439C74.8372 88.2222 74.5318 87.3067 74.4691 86.352C74.4143 85.3973 74.6336 84.38 75.1818 83.7305C75.7457 83.0654 76.5758 82.8776 77.3433 82.9871C79.2934 83.261 80.9146 85.2408 81.7291 87.5414C82.5592 89.8421 82.7081 92.4322 82.7316 94.952Z" fill="#D45555"/>
<path d="M82.3087 95.1084C83.1858 92.5261 86.248 89.6307 89.4512 88.7699C90.3283 88.5352 91.2838 88.3865 92.2393 88.4961C93.1947 88.6056 94.158 89.0125 94.6906 89.662C95.2466 90.335 95.2858 91.1879 95.043 91.9235C94.4243 93.7938 92.1923 95.038 89.7801 95.4371C87.3758 95.844 84.7991 95.531 82.3087 95.1084Z" fill="#D45555"/>
<path d="M80.8128 108.693C78.0874 108.67 74.3751 106.666 72.5503 103.896C72.0491 103.137 71.6105 102.276 71.4226 101.337C71.2268 100.398 71.3129 99.3576 71.7593 98.6455C72.2292 97.9099 73.0202 97.6047 73.7956 97.6047C75.7613 97.6047 77.6488 99.3341 78.7844 101.494C79.92 103.654 80.429 106.197 80.8128 108.693Z" fill="#D45555"/>
<path d="M80.4134 108.904C80.9146 106.228 83.546 102.926 86.6004 101.627C87.4384 101.267 88.3625 100.993 89.318 100.97C90.2813 100.946 91.2838 101.212 91.9103 101.783C92.5525 102.37 92.7091 103.208 92.576 103.974C92.2314 105.907 90.1873 107.457 87.8613 108.192C85.5353 108.92 82.9352 108.967 80.4134 108.904Z" fill="#D45555"/>
<path d="M81.4393 121.347C79.3013 121.777 76.0668 120.815 74.195 118.952C73.6781 118.436 73.2004 117.841 72.8949 117.137C72.5895 116.432 72.4798 115.611 72.7226 114.977C72.9654 114.32 73.5371 113.96 74.148 113.827C75.683 113.506 77.4451 114.546 78.6825 116.057C79.9121 117.559 80.7266 119.461 81.4393 121.347Z" fill="#D45555"/>
<path d="M81.1574 121.581C81.1104 119.406 82.6298 116.393 84.7991 114.875C85.3944 114.46 86.0679 114.093 86.8197 113.913C87.5637 113.74 88.4017 113.78 88.9813 114.124C89.5843 114.484 89.8428 115.11 89.8584 115.728C89.9054 117.301 88.5662 118.843 86.8589 119.797C85.1594 120.752 83.1388 121.221 81.1574 121.581Z" fill="#D45555"/>
<path d="M212.608 174.269C213.822 170.411 215.373 166.671 217.229 163.071C219.062 159.519 221.192 156.115 223.581 152.898C225.993 149.651 228.671 146.599 231.569 143.782C234.451 140.988 237.552 138.414 240.849 136.121C244.147 133.828 247.632 131.801 251.266 130.096C251.72 129.884 252.174 129.673 252.628 129.47C252.84 129.376 252.66 129.07 252.456 129.164C248.744 130.815 245.18 132.787 241.805 135.041C238.453 137.279 235.289 139.799 232.344 142.553C229.4 145.308 226.674 148.297 224.207 151.49C221.724 154.698 219.492 158.11 217.566 161.678C215.647 165.223 214.026 168.932 212.734 172.743C212.569 173.221 212.42 173.69 212.264 174.167C212.201 174.387 212.538 174.48 212.608 174.269Z" fill="#D45555"/>
<path d="M249.966 130.714C250.6 128.061 253.388 124.9 256.497 123.749C257.351 123.436 258.283 123.202 259.246 123.225C260.209 123.248 261.204 123.561 261.799 124.164C262.418 124.782 262.528 125.627 262.355 126.379C261.917 128.296 259.802 129.736 257.437 130.354C255.072 130.98 252.48 130.902 249.966 130.714Z" fill="#D45555"/>
<path d="M242.11 135.409C240.38 133.304 239.526 129.172 240.489 126.003C240.756 125.127 241.131 124.242 241.727 123.491C242.322 122.74 243.176 122.137 244.013 122.02C244.883 121.903 245.619 122.317 246.12 122.912C247.381 124.422 247.264 126.973 246.332 129.227C245.4 131.496 243.779 133.515 242.11 135.409Z" fill="#D45555"/>
<path d="M241.688 135.245C244.068 133.914 248.282 133.805 251.242 135.307C252.057 135.722 252.863 136.246 253.498 136.966C254.132 137.686 254.578 138.625 254.539 139.47C254.5 140.347 253.96 140.996 253.286 141.388C251.579 142.366 249.081 141.794 247.021 140.48C244.969 139.173 243.262 137.217 241.688 135.245Z" fill="#D45555"/>
<path d="M231.733 143.837C229.697 142.021 228.233 138.07 228.695 134.791C228.82 133.891 229.055 132.96 229.533 132.122C230.01 131.285 230.754 130.557 231.569 130.323C232.407 130.072 233.206 130.377 233.785 130.886C235.266 132.185 235.54 134.728 234.96 137.099C234.388 139.47 233.096 141.708 231.733 143.837Z" fill="#D45555"/>
<path d="M231.295 143.735C233.441 142.053 237.592 141.309 240.748 142.342C241.617 142.624 242.486 143.023 243.23 143.641C243.967 144.259 244.554 145.12 244.648 145.957C244.742 146.826 244.311 147.554 243.7 148.039C242.165 149.268 239.612 149.08 237.372 148.102C235.132 147.116 233.151 145.449 231.295 143.735Z" fill="#D45555"/>
<path d="M222.602 154.284C220.33 152.773 218.326 149.064 218.318 145.754C218.318 144.846 218.42 143.884 218.772 142.992C219.124 142.1 219.759 141.278 220.534 140.926C221.333 140.566 222.163 140.746 222.805 141.168C224.45 142.248 225.076 144.721 224.841 147.155C224.614 149.581 223.643 151.983 222.602 154.284Z" fill="#D45555"/>
<path d="M222.147 154.244C224.035 152.28 228.045 150.958 231.311 151.537C232.211 151.693 233.127 151.967 233.95 152.476C234.764 152.985 235.469 153.751 235.673 154.573C235.892 155.418 235.563 156.201 235.031 156.764C233.684 158.196 231.123 158.376 228.773 157.711C226.424 157.054 224.223 155.676 222.147 154.244Z" fill="#D45555"/>
<path d="M216.18 165.215C214.159 164.402 211.974 161.835 211.434 159.245C211.285 158.533 211.206 157.766 211.34 157.015C211.473 156.263 211.833 155.512 212.381 155.105C212.945 154.69 213.627 154.698 214.198 154.925C215.663 155.496 216.563 157.335 216.775 159.276C216.986 161.209 216.626 163.243 216.18 165.215Z" fill="#D45555"/>
<path d="M215.819 165.255C216.978 163.408 219.892 161.718 222.539 161.639C223.267 161.616 224.035 161.678 224.755 161.937C225.476 162.203 226.149 162.688 226.447 163.298C226.752 163.924 226.627 164.589 226.306 165.122C225.484 166.46 223.518 167.015 221.568 166.89C219.626 166.757 217.683 166.037 215.819 165.255Z" fill="#D45555"/>
<path d="M69.9301 186.492C65.9673 187.321 61.9418 187.814 57.9006 187.963C53.8986 188.112 49.8888 187.932 45.9181 187.431C41.9005 186.93 37.9298 186.093 34.0453 184.95C30.1921 183.816 26.425 182.376 22.8068 180.631C19.1885 178.886 15.7113 176.843 12.4376 174.519C12.0304 174.23 11.6231 173.932 11.2237 173.635C11.0436 173.502 10.8556 173.799 11.0436 173.932C14.3016 176.35 17.771 178.487 21.3971 180.318C24.9997 182.133 28.7432 183.659 32.5886 184.872C36.4339 186.085 40.3811 186.985 44.3753 187.572C48.3929 188.159 52.4576 188.425 56.5222 188.347C60.5556 188.276 64.5811 187.869 68.5439 187.118C69.0373 187.024 69.5307 186.93 70.0163 186.821C70.2356 186.789 70.1572 186.445 69.9301 186.492Z" fill="#D45555"/>
<path d="M13.6202 175.349C10.9966 176.1 6.86928 175.224 4.33964 173.079C3.64262 172.493 2.98476 171.788 2.53052 170.943C2.07628 170.098 1.86483 169.073 2.09194 168.259C2.33473 167.414 3.00825 166.905 3.75226 166.686C5.6397 166.131 7.93439 167.257 9.63387 169.018C11.3412 170.771 12.5473 173.072 13.6202 175.349Z" fill="#D45555"/>
<path d="M21.5694 179.88C20.5826 182.423 17.4029 185.185 14.1684 185.913C13.2756 186.109 12.3201 186.218 11.3725 186.069C10.4248 185.921 9.47721 185.475 8.96815 184.802C8.44343 184.105 8.44343 183.252 8.70971 182.532C9.40673 180.693 11.6858 179.543 14.1136 179.246C16.5414 178.941 19.1024 179.363 21.5694 179.88Z" fill="#D45555"/>
<path d="M21.632 180.333C19.2982 178.917 17.1366 175.294 16.9957 171.984C16.9565 171.076 17.0192 170.114 17.3403 169.206C17.6614 168.298 18.2566 167.445 19.0162 167.07C19.7994 166.671 20.6374 166.827 21.2953 167.218C22.9869 168.228 23.7153 170.677 23.5821 173.111C23.449 175.552 22.5797 177.994 21.632 180.333Z" fill="#D45555"/>
<path d="M34.0139 184.778C33.4265 187.439 30.7011 190.655 27.6154 191.868C26.7696 192.197 25.8376 192.455 24.8743 192.447C23.911 192.439 22.9164 192.15 22.3055 191.563C21.679 190.952 21.5459 190.115 21.7103 189.356C22.1176 187.431 24.2008 185.944 26.5503 185.279C28.8998 184.614 31.4921 184.637 34.0139 184.778Z" fill="#D45555"/>
<path d="M34.1393 185.209C31.6175 184.168 28.9312 180.912 28.289 177.665C28.1089 176.773 28.0305 175.81 28.2028 174.871C28.3751 173.925 28.845 172.993 29.5342 172.5C30.2469 171.992 31.0927 172.007 31.8133 172.305C33.638 173.04 34.7345 175.357 34.9694 177.782C35.2044 180.208 34.7188 182.759 34.1393 185.209Z" fill="#D45555"/>
<path d="M47.6019 187.603C47.3983 190.319 45.1506 193.887 42.2685 195.522C41.4775 195.968 40.5926 196.352 39.6371 196.477C38.6816 196.61 37.6557 196.461 36.9665 195.961C36.2616 195.444 36.011 194.63 36.0658 193.863C36.199 191.899 38.0473 190.139 40.2871 189.153C42.5113 188.159 45.0879 187.822 47.6019 187.603Z" fill="#D45555"/>
<path d="M47.7899 188.018C45.1506 187.337 42.0336 184.497 40.9372 181.366C40.6396 180.506 40.4203 179.567 40.4595 178.612C40.4986 177.649 40.8275 176.663 41.4384 176.077C42.0728 175.474 42.9186 175.372 43.6705 175.56C45.5814 176.037 46.9911 178.166 47.5706 180.545C48.1423 182.916 48.017 185.506 47.7899 188.018Z" fill="#D45555"/>
<path d="M60.2893 187.822C60.5791 189.982 59.4043 193.143 57.4151 194.888C56.8668 195.366 56.2403 195.812 55.512 196.07C54.7915 196.328 53.9535 196.383 53.3426 196.101C52.7082 195.812 52.3793 195.217 52.2931 194.607C52.0739 193.05 53.2329 191.367 54.8228 190.232C56.3969 189.09 58.3549 188.401 60.2893 187.822Z" fill="#D45555"/>
<path d="M60.5008 188.112C58.3235 188.01 55.418 186.304 54.0474 184.035C53.6715 183.409 53.3504 182.712 53.2251 181.961C53.0998 181.202 53.1938 180.38 53.5775 179.817C53.977 179.238 54.6191 179.027 55.2379 179.05C56.812 179.105 58.2609 180.545 59.0989 182.305C59.9369 184.066 60.2658 186.116 60.5008 188.112Z" fill="#D45555"/>
<path d="M84.5172 199.834C76.6307 200.734 68.5719 198.762 61.539 195.084C54.5061 191.406 48.4366 186.077 43.158 180.146C27.0873 162.101 18.0652 137.952 18.3707 113.803C22.31 113.263 26.2807 114.46 29.9851 115.892C44.043 121.323 56.6207 130.541 66.0344 142.311C75.4481 154.08 81.6665 168.369 83.8672 183.276C84.4781 187.462 85.3944 195.695 84.5172 199.834Z" fill="#6FCF97"/>
<path d="M23.3986 118.897C31.6297 128.616 38.9445 139.055 46.0714 149.588C53.206 160.129 60.1919 170.787 67.8122 180.983C72.0726 186.68 76.5289 192.236 81.2984 197.518C81.7213 197.987 82.5044 197.369 82.0737 196.9C73.5528 187.455 66.0422 177.164 58.8449 166.694C51.6319 156.2 44.7008 145.503 37.2607 135.158C33.1021 129.375 28.779 123.71 24.1739 118.279C23.7589 117.786 22.9835 118.404 23.3986 118.897Z" fill="white"/>
<path d="M71.2503 184.34C67.1856 183.44 63.1915 182.251 59.2991 180.787C55.4067 179.332 51.6084 177.61 47.951 175.623C45.8834 174.496 43.855 173.291 41.8814 172.007C41.3488 171.663 40.7615 172.461 41.3019 172.813C44.8496 175.114 48.554 177.172 52.3837 178.956C56.2056 180.74 60.1528 182.259 64.1939 183.495C66.4886 184.199 68.8068 184.802 71.1485 185.326C71.4069 185.381 71.6654 185.13 71.6967 184.888C71.7202 184.598 71.5166 184.403 71.2503 184.34Z" fill="white"/>
<path d="M63.5126 173.095C64.147 169.143 64.0295 165.106 63.4421 161.154C62.8391 157.139 61.774 153.211 60.5522 149.353C59.863 147.162 59.119 144.987 58.3672 142.819C58.1557 142.217 57.2472 142.608 57.4587 143.21C58.7666 146.99 60.0588 150.778 61.0691 154.643C62.0716 158.47 62.7999 162.39 62.933 166.358C63.0114 168.572 62.8782 170.802 62.5258 172.986C62.424 173.619 63.4108 173.729 63.5126 173.095Z" fill="white"/>
<path d="M50.4493 154.573C45.1864 152.71 40.1819 150.159 35.6004 146.974C34.316 146.082 33.0629 145.143 31.849 144.157C31.3556 143.758 30.7682 144.556 31.2695 144.963C35.6396 148.5 40.4874 151.458 45.6328 153.728C47.0973 154.377 48.5854 154.964 50.0969 155.496C50.6921 155.715 51.0523 154.784 50.4493 154.573Z" fill="white"/>
<path d="M41.8501 141.372C41.7404 135.847 40.4639 130.377 38.1692 125.353C37.5192 123.937 36.7908 122.567 35.9842 121.237C35.6552 120.689 34.8094 121.214 35.1383 121.761C37.9264 126.339 39.7669 131.496 40.503 136.809C40.7145 138.335 40.832 139.861 40.8633 141.403C40.8711 142.044 41.8658 142.013 41.8501 141.372Z" fill="white"/>
<g clip-path="url(#clip0_123_12)">
<rect width="134" height="218" transform="translate(65)" fill="white"/>
<path d="M65.1342 207.874C65.1342 207.874 63.818 214.909 75.4105 215.457C87.003 216.005 110.869 216.547 110.869 216.547L109.367 201.387L72.2104 198.792L66.2697 203.165L65.1342 207.874Z" fill="#E0E0E0"/>
<path d="M190.742 218H80.1074C75.5447 218 71.8492 214.294 71.8492 209.729V8.2705C71.8492 3.70105 75.5499 0 80.1074 0H190.742C195.304 0 199 3.70622 199 8.2705V209.724C199 214.299 195.304 218 190.742 218Z" fill="#223263"/>
<path d="M191.996 209.714H81.5423C80.0558 209.714 78.848 208.51 78.848 207.021V9.99695H191.991V209.714H191.996Z" fill="white"/>
<path d="M146.54 5.23623H122.343C121.543 5.23623 120.898 4.59009 120.898 3.78889C120.898 2.98769 121.543 2.34155 122.343 2.34155H146.54C147.34 2.34155 147.985 2.98769 147.985 3.78889C147.98 4.58493 147.335 5.23623 146.54 5.23623Z" fill="#455A64"/>
<path d="M94.2806 31.3348V32.7563H94.1619C94.0741 32.3842 93.909 32.0999 93.6664 31.9034C93.4238 31.707 93.1503 31.6088 92.8457 31.6088C92.5877 31.6088 92.3554 31.6812 92.1386 31.8311C91.927 31.981 91.767 32.1722 91.6689 32.41C91.5399 32.715 91.478 33.0561 91.478 33.4283C91.478 33.7953 91.5244 34.1313 91.6173 34.4311C91.7102 34.7309 91.8548 34.9635 92.0509 35.1134C92.247 35.2685 92.5051 35.346 92.8199 35.346C93.078 35.346 93.3154 35.2892 93.527 35.1755C93.7438 35.0617 93.9658 34.8653 94.2083 34.5913V34.948C93.9761 35.1858 93.7387 35.3615 93.4909 35.4701C93.2432 35.5786 92.949 35.6303 92.6186 35.6303C92.1799 35.6303 91.7928 35.5425 91.4522 35.3667C91.1115 35.191 90.8483 34.9377 90.6676 34.612C90.4818 34.2812 90.3889 33.9349 90.3889 33.5627C90.3889 33.1699 90.4921 32.7977 90.6934 32.4462C90.8947 32.0947 91.1734 31.8207 91.5244 31.6295C91.8702 31.4331 92.2419 31.34 92.6341 31.34C92.9232 31.34 93.2277 31.402 93.5477 31.5261C93.7335 31.5985 93.8522 31.6346 93.9038 31.6346C93.9658 31.6346 94.0225 31.6088 94.0741 31.5623C94.1258 31.5158 94.1516 31.4382 94.1671 31.3348H94.2806Z" fill="#223263"/>
<path d="M95.9839 31.4279V33.0665C96.1387 32.901 96.2832 32.7873 96.4123 32.7201C96.5413 32.6529 96.6755 32.6167 96.8148 32.6167C96.9903 32.6167 97.1452 32.6684 97.269 32.7666C97.3929 32.87 97.4807 32.9837 97.522 33.1233C97.5632 33.2577 97.5839 33.4903 97.5839 33.8108V34.917C97.5839 35.1341 97.6045 35.2685 97.6458 35.3202C97.6871 35.3719 97.7697 35.408 97.8884 35.4235V35.5321H96.4535V35.4235C96.5568 35.408 96.629 35.3667 96.6806 35.3047C96.7168 35.253 96.7374 35.1237 96.7374 34.9221V33.6609C96.7374 33.4283 96.7271 33.2784 96.7116 33.2215C96.691 33.1595 96.6652 33.113 96.6187 33.082C96.5774 33.0509 96.5258 33.0303 96.4742 33.0303C96.3916 33.0303 96.3142 33.0561 96.2368 33.113C96.1593 33.1698 96.0768 33.268 95.989 33.4076V34.9273C95.989 35.1289 96.0045 35.253 96.0355 35.3047C96.0716 35.3719 96.1542 35.4132 96.2729 35.4339V35.5424H94.8329V35.4339C94.9516 35.4235 95.0342 35.3822 95.0858 35.3202C95.1219 35.2736 95.1374 35.1444 95.1374 34.9273V32.0481C95.1374 31.8362 95.1167 31.7018 95.0806 31.6501C95.0393 31.5984 94.9567 31.5623 94.8329 31.5467V31.4279H95.9839Z" fill="#223263"/>
<path d="M99.8342 35.1135C99.4884 35.4184 99.1788 35.5684 98.9052 35.5684C98.7452 35.5684 98.611 35.5167 98.5026 35.4081C98.3942 35.2996 98.3426 35.1703 98.3426 35.0101C98.3426 34.793 98.4355 34.6017 98.6213 34.426C98.8071 34.2554 99.2097 34.0228 99.8342 33.7385V33.4542C99.8342 33.2423 99.8239 33.1079 99.7981 33.051C99.7775 32.9942 99.731 32.9476 99.6691 32.9063C99.6071 32.8649 99.5297 32.8443 99.4523 32.8443C99.3233 32.8443 99.2149 32.8753 99.1271 32.9321C99.0755 32.9683 99.0497 33.0097 99.0497 33.0614C99.0497 33.1027 99.0755 33.1544 99.1323 33.2164C99.2097 33.3043 99.2458 33.387 99.2458 33.4697C99.2458 33.5679 99.2097 33.6506 99.1375 33.723C99.0652 33.7902 98.9671 33.8264 98.8484 33.8264C98.7194 33.8264 98.6162 33.7902 98.5284 33.7127C98.4407 33.6351 98.3994 33.5473 98.3994 33.4439C98.3994 33.2991 98.4562 33.1596 98.5697 33.0252C98.6833 32.8908 98.8433 32.7926 99.0497 32.7202C99.2562 32.6478 99.4678 32.6168 99.6897 32.6168C99.9581 32.6168 100.17 32.6737 100.325 32.7874C100.479 32.9011 100.583 33.0252 100.629 33.1596C100.655 33.2423 100.67 33.4387 100.67 33.7437V34.8447C100.67 34.9739 100.676 35.0566 100.686 35.0876C100.696 35.1186 100.712 35.1445 100.732 35.16C100.753 35.1755 100.774 35.1858 100.799 35.1858C100.851 35.1858 100.908 35.1497 100.959 35.0721L101.052 35.1445C100.949 35.2944 100.846 35.4029 100.737 35.4701C100.629 35.5373 100.505 35.5735 100.371 35.5735C100.211 35.5735 100.082 35.5373 99.9943 35.4598C99.9065 35.3823 99.8549 35.2685 99.8342 35.1135ZM99.8342 34.8964V33.9504C99.5917 34.0952 99.411 34.2451 99.2923 34.4105C99.2149 34.519 99.1736 34.6276 99.1736 34.7413C99.1736 34.8343 99.2046 34.9171 99.2717 34.9842C99.3233 35.0411 99.3904 35.067 99.4833 35.067C99.5813 35.067 99.7001 35.0101 99.8342 34.8964Z" fill="#223263"/>
<path d="M102.461 35.2478V36.3023C102.461 36.447 102.472 36.5452 102.498 36.5969C102.518 36.6486 102.554 36.69 102.606 36.7106C102.652 36.7365 102.75 36.7468 102.89 36.7468V36.8605H101.279V36.7468C101.403 36.7417 101.496 36.7055 101.558 36.6383C101.599 36.5918 101.62 36.4729 101.62 36.2764V33.2887C101.62 33.0871 101.599 32.9631 101.553 32.9062C101.507 32.8493 101.419 32.8183 101.285 32.8132V32.6994H102.472V33.0716C102.57 32.9269 102.673 32.8235 102.776 32.7563C102.926 32.6633 103.086 32.6116 103.256 32.6116C103.463 32.6116 103.654 32.6788 103.824 32.808C103.994 32.9372 104.123 33.1181 104.211 33.3507C104.299 33.5834 104.345 33.8315 104.345 34.0951C104.345 34.3794 104.299 34.643 104.206 34.8808C104.113 35.1186 103.979 35.2995 103.809 35.4235C103.633 35.5476 103.442 35.6096 103.225 35.6096C103.07 35.6096 102.926 35.5734 102.792 35.5062C102.678 35.4649 102.575 35.3719 102.461 35.2478ZM102.461 34.9428C102.637 35.1909 102.823 35.3098 103.019 35.3098C103.127 35.3098 103.215 35.253 103.287 35.1392C103.39 34.9687 103.442 34.6482 103.442 34.1675C103.442 33.6764 103.385 33.3456 103.272 33.1647C103.194 33.0458 103.091 32.9837 102.962 32.9837C102.761 32.9837 102.59 33.1336 102.461 33.4283V34.9428Z" fill="#223263"/>
<path d="M105.935 31.6657V32.6995H106.606V32.9993H105.935V34.7464C105.935 34.9118 105.94 35.0152 105.956 35.0617C105.971 35.1083 105.997 35.1496 106.038 35.1754C106.074 35.2065 106.11 35.2168 106.141 35.2168C106.27 35.2168 106.394 35.1186 106.513 34.917L106.606 34.9842C106.441 35.3719 106.178 35.5631 105.811 35.5631C105.63 35.5631 105.481 35.5114 105.357 35.4132C105.233 35.315 105.156 35.2013 105.12 35.0772C105.099 35.01 105.089 34.824 105.089 34.519V32.9889H104.722V32.8804C104.975 32.6995 105.192 32.5134 105.372 32.3118C105.553 32.1154 105.708 31.8931 105.842 31.6501H105.935V31.6657Z" fill="#223263"/>
<path d="M109.269 34.0176H107.716C107.736 34.395 107.834 34.6896 108.015 34.9067C108.154 35.0721 108.32 35.16 108.516 35.16C108.634 35.16 108.748 35.1238 108.846 35.0566C108.944 34.9894 109.053 34.8654 109.166 34.6896L109.269 34.7568C109.114 35.0721 108.949 35.2892 108.763 35.4236C108.578 35.5528 108.361 35.62 108.118 35.62C107.7 35.62 107.38 35.4598 107.163 35.1342C106.988 34.8757 106.905 34.55 106.905 34.1624C106.905 33.692 107.034 33.3146 107.287 33.0355C107.54 32.7564 107.84 32.6168 108.185 32.6168C108.469 32.6168 108.722 32.7357 108.929 32.9683C109.135 33.2009 109.254 33.5524 109.269 34.0176ZM108.526 33.816C108.526 33.4904 108.511 33.2681 108.474 33.1492C108.438 33.0303 108.387 32.9373 108.309 32.8753C108.268 32.8391 108.211 32.8184 108.139 32.8184C108.036 32.8184 107.948 32.8701 107.881 32.9735C107.762 33.1544 107.7 33.3974 107.7 33.7127V33.8212H108.526V33.816Z" fill="#223263"/>
<path d="M110.797 32.6994V33.3404C110.983 33.0458 111.148 32.8545 111.293 32.7563C111.432 32.6581 111.571 32.6116 111.7 32.6116C111.814 32.6116 111.902 32.6478 111.969 32.715C112.036 32.7822 112.072 32.8855 112.072 33.0096C112.072 33.144 112.041 33.2474 111.974 33.3249C111.907 33.3973 111.829 33.4386 111.736 33.4386C111.628 33.4386 111.535 33.4024 111.458 33.3352C111.38 33.268 111.334 33.2267 111.318 33.2215C111.298 33.2112 111.277 33.2008 111.251 33.2008C111.194 33.2008 111.138 33.2215 111.086 33.268C111.004 33.3352 110.942 33.4335 110.9 33.5627C110.838 33.7591 110.802 33.9762 110.802 34.2088V34.8601L110.807 35.0307C110.807 35.1444 110.813 35.2219 110.828 35.253C110.854 35.3098 110.89 35.346 110.936 35.3719C110.983 35.3977 111.065 35.4132 111.179 35.4184V35.5269H109.651V35.4184C109.775 35.408 109.858 35.377 109.899 35.315C109.94 35.2581 109.966 35.1031 109.966 34.8601V33.2939C109.966 33.1336 109.956 33.0303 109.94 32.9837C109.92 32.9269 109.889 32.8855 109.853 32.8597C109.816 32.8338 109.744 32.8132 109.651 32.8028V32.6891H110.797V32.6994Z" fill="#223263"/>
<path d="M115.618 31.34V34.6999C115.618 34.9532 115.628 35.1134 115.649 35.1806C115.669 35.2478 115.716 35.3098 115.788 35.3512C115.86 35.3977 115.974 35.4184 116.129 35.4184H116.222V35.5321H114.064V35.4184H114.173C114.348 35.4184 114.472 35.3977 114.549 35.3564C114.622 35.315 114.673 35.2582 114.699 35.191C114.725 35.1186 114.74 34.9532 114.74 34.6947V32.5651C114.74 32.3738 114.73 32.2549 114.715 32.2084C114.694 32.1619 114.663 32.1205 114.611 32.0895C114.56 32.0585 114.503 32.0378 114.441 32.0378C114.338 32.0378 114.214 32.0688 114.064 32.136L114.007 32.0275L115.515 31.3348H115.618V31.34Z" fill="#223263"/>
<path d="M99.6587 57.9193V61.243H99.3336C99.1426 60.478 98.9258 59.9249 98.6935 59.5889C98.4561 59.2529 98.1361 58.9841 97.7284 58.7877C97.5013 58.6792 97.0987 58.6223 96.5258 58.6223H95.6122V68.092C95.6122 68.7175 95.6483 69.1103 95.7154 69.2706C95.7825 69.4256 95.9219 69.5652 96.1232 69.6841C96.3245 69.803 96.6032 69.8598 96.949 69.8598H97.3567V70.1958H90.936V69.8598H91.3437C91.6999 69.8598 91.9837 69.7978 92.2005 69.6686C92.3554 69.5859 92.4792 69.4411 92.5721 69.2344C92.6392 69.0896 92.6702 68.7071 92.6702 68.092V58.6223H91.7876C90.9618 58.6223 90.3631 58.798 89.9863 59.1495C89.4598 59.6406 89.1295 60.3333 88.9901 61.243H88.6443V57.9193H99.6587Z" fill="#223263"/>
<path d="M178.896 44.2731C178.896 44.3454 174.256 44.4075 168.532 44.4075C162.808 44.4075 158.168 44.3454 158.168 44.2731C158.168 44.2007 162.808 44.1387 168.532 44.1387C174.256 44.1387 178.896 44.2007 178.896 44.2731Z" fill="#223263"/>
<path d="M178.659 60.4109C178.659 60.4833 161.745 60.5453 140.883 60.5453C120.015 60.5453 103.101 60.4833 103.101 60.4109C103.101 60.3385 120.015 60.2765 140.883 60.2765C161.745 60.2765 178.659 60.3385 178.659 60.4109Z" fill="#223263"/>
<path d="M178.659 65.6161C178.659 65.6885 161.745 65.7505 140.883 65.7505C120.015 65.7505 103.101 65.6885 103.101 65.6161C103.101 65.5437 120.015 65.4817 140.883 65.4817C161.745 65.4817 178.659 65.5437 178.659 65.6161Z" fill="#223263"/>
<path d="M178.659 70.8214C178.659 70.8938 161.745 70.9558 140.883 70.9558C120.015 70.9558 103.101 70.8938 103.101 70.8214C103.101 70.749 120.015 70.687 140.883 70.687C161.745 70.687 178.659 70.749 178.659 70.8214Z" fill="#223263"/>
<path d="M178.659 76.0266C178.659 76.099 158.359 76.161 133.321 76.161C108.278 76.161 87.9785 76.099 87.9785 76.0266C87.9785 75.9542 108.273 75.8922 133.321 75.8922C158.359 75.8922 178.659 75.9491 178.659 76.0266Z" fill="#223263"/>
<path d="M178.659 81.2267C178.659 81.299 158.359 81.3611 133.321 81.3611C108.278 81.3611 87.9785 81.299 87.9785 81.2267C87.9785 81.1543 108.273 81.0923 133.321 81.0923C158.359 81.0923 178.659 81.1543 178.659 81.2267Z" fill="#223263"/>
<path d="M139.045 86.4319C139.045 86.5042 127.613 86.5663 113.512 86.5663C99.4058 86.5663 87.9785 86.5042 87.9785 86.4319C87.9785 86.3595 99.4058 86.2975 113.512 86.2975C127.613 86.2975 139.045 86.3595 139.045 86.4319Z" fill="#223263"/>
<path d="M178.659 91.6372C178.659 91.7096 158.359 91.7716 133.321 91.7716C108.278 91.7716 87.9785 91.7096 87.9785 91.6372C87.9785 91.5648 108.273 91.5028 133.321 91.5028C158.359 91.5028 178.659 91.5648 178.659 91.6372Z" fill="#223263"/>
<path d="M178.659 96.8424C178.659 96.9148 158.359 96.9768 133.321 96.9768C108.278 96.9768 87.9785 96.9148 87.9785 96.8424C87.9785 96.77 108.273 96.708 133.321 96.708C158.359 96.708 178.659 96.7649 178.659 96.8424Z" fill="#223263"/>
<path d="M178.659 102.048C178.659 102.12 158.359 102.182 133.321 102.182C108.278 102.182 87.9785 102.12 87.9785 102.048C87.9785 101.975 108.273 101.913 133.321 101.913C158.359 101.908 178.659 101.97 178.659 102.048Z" fill="#223263"/>
<path d="M178.659 107.248C178.659 107.32 158.359 107.382 133.321 107.382C108.278 107.382 87.9785 107.32 87.9785 107.248C87.9785 107.175 108.273 107.113 133.321 107.113C158.359 107.113 178.659 107.175 178.659 107.248Z" fill="#223263"/>
<path d="M178.659 112.453C178.659 112.525 158.359 112.587 133.321 112.587C108.278 112.587 87.9785 112.525 87.9785 112.453C87.9785 112.381 108.273 112.319 133.321 112.319C158.359 112.319 178.659 112.381 178.659 112.453Z" fill="#223263"/>
<path d="M103.101 117.658C103.101 117.731 99.7155 117.793 95.54 117.793C91.3644 117.793 87.9785 117.731 87.9785 117.658C87.9785 117.586 91.3644 117.524 95.54 117.524C99.7155 117.524 103.101 117.581 103.101 117.658Z" fill="#223263"/>
<path d="M178.659 122.864C178.659 122.936 158.359 122.998 133.321 122.998C108.278 122.998 87.9785 122.936 87.9785 122.864C87.9785 122.791 108.273 122.729 133.321 122.729C158.359 122.729 178.659 122.786 178.659 122.864Z" fill="#223263"/>
<path d="M178.659 128.064C178.659 128.136 158.359 128.198 133.321 128.198C108.278 128.198 87.9785 128.136 87.9785 128.064C87.9785 127.991 108.273 127.929 133.321 127.929C158.359 127.929 178.659 127.991 178.659 128.064Z" fill="#223263"/>
<path d="M178.659 133.269C178.659 133.341 158.359 133.403 133.321 133.403C108.278 133.403 87.9785 133.341 87.9785 133.269C87.9785 133.196 108.273 133.134 133.321 133.134C158.359 133.134 178.659 133.196 178.659 133.269Z" fill="#223263"/>
<path d="M157.59 138.474C157.59 138.546 142.008 138.608 122.787 138.608C103.561 138.608 87.9785 138.546 87.9785 138.474C87.9785 138.402 103.561 138.34 122.787 138.34C142.008 138.34 157.59 138.402 157.59 138.474Z" fill="#223263"/>
<path d="M178.659 143.679C178.659 143.752 158.359 143.814 133.321 143.814C108.278 143.814 87.9785 143.752 87.9785 143.679C87.9785 143.607 108.273 143.545 133.321 143.545C158.359 143.545 178.659 143.602 178.659 143.679Z" fill="#223263"/>
<path d="M178.659 148.879C178.659 148.952 158.359 149.014 133.321 149.014C108.278 149.014 87.9785 148.952 87.9785 148.879C87.9785 148.807 108.273 148.745 133.321 148.745C158.359 148.745 178.659 148.807 178.659 148.879Z" fill="#223263"/>
<path d="M166.452 154.085C166.452 154.157 148.883 154.219 127.215 154.219C105.543 154.219 87.9785 154.157 87.9785 154.085C87.9785 154.012 105.543 153.95 127.215 153.95C148.883 153.95 166.452 154.012 166.452 154.085Z" fill="#223263"/>
<path d="M178.659 159.29C178.659 159.362 158.359 159.424 133.321 159.424C108.278 159.424 87.9785 159.362 87.9785 159.29C87.9785 159.218 108.273 159.156 133.321 159.156C158.359 159.156 178.659 159.218 178.659 159.29Z" fill="#223263"/>
<path d="M178.659 169.7C178.659 169.773 158.359 169.835 133.321 169.835C108.278 169.835 87.9785 169.773 87.9785 169.7C87.9785 169.628 108.273 169.566 133.321 169.566C158.359 169.566 178.659 169.623 178.659 169.7Z" fill="#223263"/>
<path d="M178.659 174.9C178.659 174.973 158.359 175.035 133.321 175.035C108.278 175.035 87.9785 174.973 87.9785 174.9C87.9785 174.828 108.273 174.766 133.321 174.766C158.359 174.766 178.659 174.828 178.659 174.9Z" fill="#223263"/>
<path d="M178.659 180.106C178.659 180.178 158.359 180.24 133.321 180.24C108.278 180.24 87.9785 180.178 87.9785 180.106C87.9785 180.033 108.273 179.971 133.321 179.971C158.359 179.971 178.659 180.033 178.659 180.106Z" fill="#223263"/>
<path d="M136.16 195.463L135.871 196.254H133.45V196.14C134.163 195.489 134.663 194.956 134.952 194.548C135.241 194.134 135.386 193.757 135.386 193.416C135.386 193.158 135.308 192.94 135.148 192.775C134.988 192.61 134.797 192.522 134.576 192.522C134.374 192.522 134.194 192.579 134.034 192.697C133.874 192.816 133.755 192.987 133.677 193.214H133.564C133.616 192.842 133.745 192.553 133.951 192.356C134.157 192.155 134.421 192.057 134.73 192.057C135.061 192.057 135.339 192.165 135.561 192.377C135.783 192.589 135.897 192.842 135.897 193.132C135.897 193.338 135.85 193.545 135.752 193.757C135.603 194.083 135.36 194.429 135.025 194.796C134.524 195.344 134.209 195.675 134.085 195.789H135.154C135.37 195.789 135.525 195.778 135.613 195.763C135.701 195.747 135.778 195.716 135.85 195.665C135.923 195.613 135.985 195.546 136.036 195.453H136.16V195.463Z" fill="#223263"/>
<path d="M136.64 194.222C136.64 193.752 136.712 193.349 136.852 193.013C136.991 192.677 137.182 192.423 137.414 192.258C137.595 192.129 137.781 192.062 137.977 192.062C138.292 192.062 138.576 192.222 138.823 192.542C139.138 192.94 139.293 193.478 139.293 194.16C139.293 194.636 139.226 195.044 139.087 195.375C138.947 195.706 138.777 195.949 138.56 196.099C138.349 196.249 138.142 196.326 137.946 196.326C137.554 196.326 137.228 196.094 136.97 195.633C136.748 195.241 136.64 194.77 136.64 194.222ZM137.234 194.3C137.234 194.863 137.301 195.329 137.44 195.685C137.554 195.985 137.724 196.135 137.956 196.135C138.065 196.135 138.178 196.088 138.297 195.99C138.416 195.892 138.503 195.727 138.565 195.499C138.658 195.153 138.705 194.662 138.705 194.031C138.705 193.561 138.658 193.173 138.56 192.858C138.488 192.625 138.395 192.46 138.281 192.367C138.199 192.299 138.101 192.268 137.982 192.268C137.843 192.268 137.724 192.33 137.616 192.454C137.471 192.62 137.373 192.884 137.321 193.245C137.259 193.597 137.234 193.948 137.234 194.3Z" fill="#223263"/>
<path d="M79.7512 209.213C75.9112 202.653 67.7923 202.581 65.1342 207.879V14.6905C65.1342 11.1186 67.7097 7.97585 71.2453 7.52097C73.5008 7.2315 75.555 8.0999 79.039 10.1158L79.7512 209.213Z" fill="white"/>
<path d="M79.7513 209.213C79.7461 207.791 79.3796 121.499 78.9048 10.121L78.9719 10.2347C77.919 9.62994 76.8402 9.01999 75.6996 8.50826C74.5641 8.00169 73.346 7.5985 72.0814 7.60367C70.822 7.61401 69.5523 7.98101 68.4839 8.68401C67.4104 9.37666 66.5433 10.395 65.9807 11.5528C65.6968 12.1628 65.4903 12.8141 65.3716 13.4757C65.2529 14.1374 65.2684 14.8145 65.2684 15.502C65.2684 16.8718 65.2684 18.2364 65.2684 19.6011C65.2684 22.3252 65.2684 25.0389 65.2684 27.7372C65.2684 33.1337 65.2684 38.4733 65.2684 43.7509C65.2684 54.3061 65.2632 64.6029 65.2632 74.5947C65.2581 94.5731 65.2529 113.301 65.2477 130.307C65.2219 164.314 65.2013 191.436 65.191 207.879L65.0877 207.853C65.7432 206.54 66.7807 205.527 67.9265 204.922C69.0723 204.307 70.2904 204.075 71.4053 204.059C71.9679 204.028 72.4995 204.126 73.0105 204.188C73.2634 204.235 73.506 204.312 73.7434 204.369C73.986 204.426 74.2182 204.488 74.4299 204.586C74.8686 204.757 75.2918 204.917 75.6531 205.145C75.8389 205.248 76.0196 205.346 76.2002 205.444C76.3705 205.553 76.5254 205.677 76.6802 205.786C76.9899 206.008 77.2841 206.215 77.5164 206.452C77.759 206.685 77.9964 206.887 78.1925 207.098C78.5538 207.548 78.8996 207.895 79.1061 208.22C79.519 208.851 79.6996 209.135 79.7513 209.213C79.6996 209.135 79.5138 208.861 79.0906 208.246C78.8738 207.92 78.5332 207.574 78.1667 207.135C77.9706 206.928 77.728 206.726 77.4854 206.499C77.2531 206.261 76.9589 206.054 76.6493 205.837C76.4944 205.729 76.3396 205.61 76.1692 205.501C75.9938 205.403 75.8131 205.305 75.6273 205.207C75.266 204.984 74.8479 204.829 74.4092 204.659C74.1976 204.56 73.9653 204.504 73.7227 204.447C73.4853 204.39 73.2427 204.317 72.995 204.271C72.4892 204.209 71.9576 204.116 71.4053 204.152C70.3007 204.168 69.0981 204.405 67.9678 205.015C66.8426 205.62 65.8258 206.618 65.1806 207.915L65.0774 208.122V207.894C65.0671 191.447 65.0465 164.33 65.0206 130.322C65.0155 113.316 65.0103 94.5887 65.0052 74.6102C65.0052 64.6236 65 54.3217 65 43.7664C65 38.4733 65 33.1337 65 27.7372C65 25.0389 65 22.3252 65 19.6011C65 18.2364 65 16.8718 65 15.502C65.0052 14.8249 64.9845 14.1219 65.1084 13.4292C65.2323 12.7417 65.4439 12.0697 65.7381 11.4339C66.3213 10.2296 67.2194 9.17507 68.3394 8.45657C69.4491 7.72256 70.7704 7.34522 72.0814 7.32971C73.4027 7.32971 74.657 7.74841 75.808 8.26014C76.9641 8.77705 78.048 9.39217 79.1061 9.99695L79.1732 10.0331V10.1107C79.4983 121.499 79.7461 207.791 79.7513 209.213Z" fill="#223263"/>
<path d="M184.218 117.917C184.14 117.917 184.063 117.88 184.011 117.813C183.924 117.7 183.949 117.539 184.063 117.451L186.995 115.224L184.084 113.373C183.965 113.295 183.929 113.135 184.006 113.016C184.084 112.897 184.244 112.861 184.362 112.939L187.588 114.986C187.66 115.032 187.707 115.11 187.707 115.193C187.712 115.275 187.671 115.358 187.604 115.41L184.378 117.86C184.326 117.896 184.269 117.917 184.218 117.917Z" fill="#E0E0E0"/>
<g opacity="0.3">
<g opacity="0.3">
<path opacity="0.3" d="M163.288 9.99695V33.8367C163.288 34.3329 163.887 34.581 164.238 34.2295L169.972 28.4867C170.189 28.2696 170.545 28.2696 170.762 28.4867L176.496 34.2295C176.847 34.581 177.446 34.3329 177.446 33.8367V9.99695H163.288Z" fill="black"/>
</g>
</g>
<path d="M162.086 9.99695V31.6346C162.086 32.1309 162.684 32.379 163.035 32.0275L168.77 26.2847C168.987 26.0676 169.343 26.0676 169.559 26.2847L175.294 32.0275C175.645 32.379 176.243 32.1309 176.243 31.6346V9.99695H162.086Z" fill="#223263"/>
</g>
<path d="M186.98 12.5046C187.124 9.95627 188.696 8.38422 190.892 7.07776C193.089 5.77131 195.939 5.64211 198.25 6.74757C199.793 7.47976 201.143 8.73597 202.837 8.95849C205.629 9.31741 208.271 6.7332 211.013 7.37925C212.635 7.7597 213.87 9.38201 213.805 11.0474C213.741 12.7127 212.391 14.2346 210.747 14.5001C212.578 14.7657 213.612 17.0772 212.937 18.8C212.262 20.5156 210.345 21.5134 208.493 21.5565C206.649 21.5995 204.868 20.8458 203.275 19.9126C201.674 18.9866 200.188 17.8668 198.523 17.07C196.857 16.2732 194.941 15.8066 193.153 16.2804C190.734 16.9264 189.026 19.2019 188.394 21.6282C187.762 24.0473 188.035 26.6028 188.408 29.0793C188.782 31.5487 189.263 34.0467 189.026 36.5376C188.997 36.8319 188.932 37.1621 188.674 37.3057C188.301 37.5139 187.877 37.1621 187.605 36.8391C184.518 33.1781 182.156 28.9071 180.706 24.3417C179.866 21.6928 179.4 19.1086 180.412 16.5173C181.424 13.9187 184.834 11.4494 186.98 12.5046Z" fill="#223263"/>
<path d="M184.625 24.837L188.71 50.0473C189.471 54.7563 192.529 59.3001 199.923 57.7568C206.232 55.9335 205.766 51.3968 204.94 45.7977C204.94 45.7977 204.962 46.013 204.94 45.7977C204.94 45.7977 211.882 43.9959 211.257 36.9325C210.956 33.5228 209.764 26.5454 208.615 20.25C207.381 13.4881 201.15 8.81497 194.309 9.49691L193.627 9.56869C186.341 10.7388 183.262 17.5797 184.625 24.837Z" fill="#F9BE9D"/>
<path d="M204.94 45.7976C204.94 45.7976 200.526 46.5083 195.494 44.0103C195.494 44.0103 198.264 49.2504 205.227 47.9081L204.94 45.7976Z" fill="#F3986E"/>
<path d="M207.237 27.3134C207.309 27.8446 206.921 28.3399 206.369 28.4261C205.816 28.5122 205.313 28.1533 205.242 27.6221C205.17 27.0909 205.558 26.5956 206.11 26.5095C206.656 26.4233 207.165 26.7822 207.237 27.3134Z" fill="#223263"/>
<path d="M207.453 23.8679C207.338 24.0115 206.519 23.5233 205.436 23.6382C204.352 23.7315 203.612 24.3704 203.483 24.2484C203.418 24.1981 203.526 23.9469 203.842 23.6597C204.158 23.3726 204.71 23.0711 205.392 23.0065C206.067 22.9419 206.663 23.1357 207.015 23.3582C207.374 23.5736 207.51 23.8033 207.453 23.8679Z" fill="#223263"/>
<path d="M197.683 28.2826C197.755 28.8137 197.367 29.309 196.814 29.3952C196.262 29.4813 195.759 29.1224 195.687 28.5912C195.616 28.06 196.003 27.5647 196.556 27.4786C197.101 27.3924 197.604 27.7514 197.683 28.2826Z" fill="#223263"/>
<path d="M196.829 25.1384C196.714 25.282 195.895 24.7939 194.812 24.9087C193.728 25.002 192.988 25.6409 192.859 25.5189C192.794 25.4686 192.895 25.2174 193.218 24.9302C193.534 24.6431 194.087 24.3416 194.761 24.277C195.436 24.2124 196.032 24.4062 196.384 24.6288C196.743 24.8441 196.879 25.0738 196.829 25.1384Z" fill="#223263"/>
<path d="M201.566 32.7762C201.552 32.7116 202.22 32.5321 203.296 32.2809C203.569 32.2235 203.827 32.1445 203.856 31.9507C203.899 31.7425 203.756 31.4554 203.591 31.1467C203.26 30.5006 202.923 29.8259 202.564 29.1224C201.128 26.2367 200.059 23.8535 200.174 23.7961C200.289 23.7387 201.552 26.0286 202.988 28.9143C203.332 29.6249 203.67 30.3068 203.985 30.9529C204.122 31.2544 204.337 31.5918 204.237 32.0225C204.186 32.2378 203.993 32.4101 203.82 32.4747C203.648 32.5465 203.49 32.568 203.354 32.5896C202.255 32.7618 201.573 32.8336 201.566 32.7762Z" fill="#223263"/>
<path d="M196.678 20.8673C196.599 21.176 195.508 21.1401 194.252 21.4201C192.988 21.6785 192.005 22.1523 191.811 21.901C191.725 21.779 191.876 21.4847 192.256 21.1617C192.637 20.8386 193.268 20.5013 194.022 20.3362C194.776 20.1782 195.486 20.2285 195.967 20.372C196.455 20.5156 196.707 20.7166 196.678 20.8673Z" fill="#223263"/>
<path d="M206.742 20.7669C206.577 21.0325 205.802 20.853 204.904 20.932C204 20.9822 203.26 21.2622 203.067 21.0253C202.98 20.9104 203.074 20.652 203.382 20.3864C203.684 20.1208 204.215 19.8767 204.832 19.8337C205.45 19.7906 206.01 19.9629 206.347 20.1782C206.677 20.4008 206.814 20.6448 206.742 20.7669Z" fill="#223263"/>
<path d="M185.731 29.9981C185.609 29.955 180.742 29.0506 181.381 33.8529C182.02 38.6552 186.707 37.0257 186.7 36.8821C186.686 36.7457 185.731 29.9981 185.731 29.9981Z" fill="#F9BE9D"/>
<path d="M184.991 35.2598C184.97 35.2454 184.913 35.3316 184.783 35.4105C184.654 35.4895 184.424 35.5685 184.159 35.5038C183.628 35.3818 183.089 34.6353 182.953 33.7739C182.881 33.336 182.917 32.9125 183.025 32.5464C183.125 32.1731 183.319 31.9003 183.57 31.8214C183.814 31.728 184.015 31.8573 184.094 31.9865C184.173 32.1157 184.159 32.209 184.188 32.2162C184.202 32.2233 184.281 32.1228 184.216 31.929C184.18 31.8357 184.116 31.728 183.987 31.6563C183.857 31.5773 183.685 31.5558 183.506 31.5988C183.139 31.6706 182.852 32.0583 182.73 32.4602C182.587 32.8622 182.536 33.3503 182.615 33.8385C182.773 34.8004 183.391 35.6402 184.109 35.7479C184.46 35.791 184.726 35.6546 184.855 35.5182C184.999 35.3818 185.006 35.267 184.991 35.2598Z" fill="#F3986E"/>
<path d="M208.041 13.6818C207.273 12.361 206.046 11.3632 204.739 10.5736C201.925 8.86516 198.587 7.95351 195.307 8.23346C192.026 8.51341 188.825 10.0209 186.678 12.5261C184.963 14.5288 183.972 17.0915 183.656 19.7116C183.34 22.3317 183.671 24.9948 184.396 27.536C184.712 28.6486 185.142 29.7971 186.018 30.5437C186.571 31.0103 187.454 31.2687 187.978 30.7734C188.286 30.4791 188.365 30.0269 188.43 29.6033C188.983 25.7916 189.499 21.7 187.777 18.2544C188.573 16.9623 189.535 15.7348 190.792 14.8734C192.041 14.012 193.62 13.5311 195.113 13.8326C197.331 14.2776 198.86 16.2373 200.719 17.515C203.375 19.3455 206.943 19.7834 209.965 18.642L208.041 13.6818Z" fill="#223263"/>
<path d="M202.521 35.6978C202.442 36.15 202.363 36.6094 202.162 37.0186C201.961 37.4278 201.617 37.7939 201.172 37.9087C200.698 38.0308 200.181 37.8441 199.829 37.5067C199.477 37.1622 199.284 36.6884 199.205 36.2075C199.133 35.7696 199.226 35.2168 199.643 35.0733C199.815 35.0159 200.009 35.0446 200.188 35.0805C201.006 35.2312 201.825 35.3748 202.636 35.5255" fill="#F3986E"/>
<path d="M202.004 37.7508C201.976 37.679 201.523 37.9877 200.77 37.8513C200.403 37.7867 199.98 37.5929 199.686 37.2124C199.391 36.8392 199.233 36.2792 199.348 35.7409C199.37 35.6045 199.42 35.4753 199.477 35.3604C199.549 35.2456 199.535 35.2527 199.635 35.2527C199.736 35.2599 199.894 35.2958 200.03 35.3173C200.167 35.3389 200.303 35.3676 200.432 35.3891C200.956 35.4825 201.43 35.5614 201.832 35.626C202.629 35.748 203.131 35.7983 203.138 35.7409C203.153 35.6834 202.672 35.5399 201.889 35.3389C201.495 35.2384 201.028 35.1307 200.511 35.0159C200.382 34.9872 200.246 34.9584 200.109 34.9297C199.966 34.901 199.851 34.8651 199.664 34.8436C199.571 34.8364 199.442 34.8508 199.334 34.9225C199.226 34.9943 199.169 35.0948 199.126 35.1738C199.054 35.3317 198.989 35.4896 198.961 35.6547C198.824 36.3295 199.032 36.9971 199.406 37.4493C199.793 37.9087 200.324 38.1025 200.748 38.1384C201.179 38.1815 201.523 38.0738 201.731 37.9733C201.925 37.8657 202.019 37.7652 202.004 37.7508Z" fill="#223263"/>
<path d="M212.628 8.35547C212.635 8.35547 212.671 8.46315 212.721 8.67132C212.757 8.88667 212.808 9.20252 212.75 9.61886C212.671 10.43 212.197 11.6431 211.006 12.5691C209.821 13.5095 207.955 13.8828 206.031 13.5885C204.079 13.3229 202.133 12.3825 200.095 11.5426C198.063 10.7028 195.967 10.1357 194.094 10.4803C192.22 10.7961 190.77 11.8728 189.808 12.9281C188.839 13.9976 188.294 15.0529 187.978 15.7922C187.669 16.5388 187.561 16.9838 187.533 16.9695C187.525 16.9695 187.54 16.8546 187.59 16.6464C187.633 16.4311 187.726 16.1296 187.863 15.742C188.15 14.9811 188.667 13.8828 189.643 12.7701C190.598 11.6719 192.084 10.5305 194.043 10.1859C196.003 9.81267 198.171 10.3941 200.217 11.2412C202.27 12.0882 204.194 13.0142 206.081 13.287C207.948 13.5885 209.742 13.2439 210.884 12.3753C212.039 11.5139 212.528 10.3654 212.642 9.58297C212.75 8.80053 212.585 8.35547 212.628 8.35547Z" fill="#455A64"/>
<path d="M181.087 22.985C181.051 22.985 181.051 22.461 181.273 21.657C181.481 20.853 181.941 19.7691 182.73 18.7641C183.118 18.2616 183.556 17.8309 183.979 17.4792C184.403 17.1275 184.862 16.869 185.3 16.7901C185.731 16.7111 186.09 16.7973 186.305 16.9049C186.521 17.0198 186.6 17.1275 186.585 17.1418C186.571 17.1921 186.126 16.8116 185.35 17.0126C184.597 17.2064 183.75 18.0176 182.982 18.9651C182.221 19.9342 181.747 20.9607 181.489 21.7288C181.216 22.4897 181.137 22.9922 181.087 22.985Z" fill="#455A64"/>
<path d="M182.357 27.1484C182.321 27.1412 182.364 26.6244 182.63 25.8276C182.888 25.0308 183.405 23.9756 184.231 22.985C185.056 22.0016 186.011 21.2981 186.743 20.9033C187.482 20.5013 187.985 20.3721 187.999 20.4008C188.021 20.4511 187.547 20.6592 186.858 21.0971C186.169 21.535 185.271 22.2313 184.475 23.186C183.678 24.1407 183.147 25.1457 182.838 25.9066C182.529 26.6603 182.407 27.1556 182.357 27.1484Z" fill="#455A64"/>
<path d="M225.054 224.746L236.051 239.203L241.449 253.151C241.837 254.156 243 254.622 243.976 254.163C244.521 253.905 244.909 253.409 245.017 252.813C245.699 249.03 248.147 235.119 247.285 234.099C246.287 232.929 236.697 218.078 236.697 218.078L225.054 224.746Z" fill="#455A64"/>
<g opacity="0.6">
<g opacity="0.6">
<g opacity="0.6">
<g opacity="0.6">
<g opacity="0.6">
<g opacity="0.6">
<g opacity="0.6">
<path opacity="0.6" d="M243.976 254.163L246.56 233.109L247.012 233.733C247.4 234.272 247.594 234.932 247.544 235.593C247.407 237.366 246.919 242.261 245.06 252.778C244.952 253.395 244.543 253.919 243.976 254.163Z" fill="white"/>
</g>
</g>
</g>
</g>
</g>
</g>
</g>
<g opacity="0.6">
<g opacity="0.6">
<g opacity="0.6">
<g opacity="0.6">
<g opacity="0.6">
<g opacity="0.6">
<g opacity="0.6">
<g opacity="0.6">
<path opacity="0.6" d="M240.1 230.561C239.913 231.085 240.2 231.731 240.717 231.932C241.234 232.14 241.887 231.853 242.081 231.336C242.275 230.819 241.959 230.029 241.42 229.886C240.889 229.742 240.135 230.116 240.071 230.661" fill="white"/>
</g>
</g>
</g>
</g>
</g>
</g>
</g>
</g>
<path d="M242.677 245.298C242.626 245.398 241.736 244.867 240.559 245.09C239.375 245.276 238.714 246.073 238.628 245.994C238.592 245.965 238.693 245.721 239.001 245.42C239.303 245.125 239.841 244.81 240.487 244.695C241.14 244.587 241.743 244.702 242.131 244.881C242.526 245.061 242.705 245.262 242.677 245.298Z" fill="#223263"/>
<path d="M243.057 248.033C243.036 248.148 242.217 248.011 241.298 248.341C240.372 248.657 239.82 249.275 239.726 249.196C239.633 249.153 240.114 248.327 241.162 247.961C242.21 247.588 243.107 247.932 243.057 248.033Z" fill="#223263"/>
<path d="M242.799 241.364C242.777 241.486 241.521 241.271 240.049 241.665C238.571 242.039 237.573 242.836 237.501 242.742C237.422 242.678 238.362 241.687 239.949 241.285C241.528 240.854 242.835 241.271 242.799 241.364Z" fill="#223263"/>
<path d="M239.82 236.691C239.841 236.806 238.786 237.057 237.702 237.789C236.604 238.5 235.965 239.383 235.864 239.311C235.771 239.268 236.302 238.227 237.479 237.459C238.65 236.669 239.82 236.583 239.82 236.691Z" fill="#223263"/>
<path d="M236.697 232.362C236.711 232.477 235.541 232.585 234.465 233.446C233.366 234.286 232.979 235.392 232.871 235.349C232.828 235.334 232.85 235.033 233.051 234.595C233.244 234.157 233.639 233.59 234.221 233.13C234.809 232.671 235.448 232.434 235.922 232.348C236.396 232.269 236.697 232.312 236.697 232.362Z" fill="#223263"/>
<path d="M233.89 232.599C233.869 232.614 233.697 232.441 233.467 232.061C233.244 231.68 232.964 231.085 232.85 230.281C232.814 229.893 232.72 229.419 232.993 228.931C233.129 228.687 233.46 228.5 233.776 228.572C234.084 228.637 234.314 228.838 234.486 229.067C235.147 230.015 235.003 231.494 234.048 232.391C233.079 233.274 231.687 233.36 230.682 232.858C230.438 232.714 230.194 232.506 230.122 232.176C230.05 231.845 230.28 231.53 230.517 231.408C230.998 231.156 231.457 231.207 231.852 231.207C232.656 231.25 233.28 231.451 233.682 231.623C234.091 231.795 234.285 231.946 234.278 231.968C234.256 232.046 233.381 231.515 231.845 231.494C231.471 231.501 231.019 231.494 230.689 231.695C230.524 231.788 230.438 231.946 230.473 232.111C230.502 232.269 230.667 232.434 230.868 232.542C231.701 232.944 232.972 232.858 233.783 232.104C234.594 231.357 234.723 230.051 234.192 229.29C234.063 229.111 233.883 228.96 233.711 228.924C233.539 228.888 233.374 228.96 233.28 229.118C233.079 229.441 233.108 229.886 233.137 230.259C233.302 231.781 233.969 232.57 233.89 232.599Z" fill="#223263"/>
<path d="M214.703 231.666L212.564 246.317C212.564 246.317 226.841 252.34 226.712 255.089L198.049 253.029L200.447 230.058L214.703 231.666Z" fill="#455A64"/>
<g opacity="0.6">
<g opacity="0.6">
<g opacity="0.6">
<g opacity="0.6">
<g opacity="0.6">
<g opacity="0.6">
<g opacity="0.6">
<g opacity="0.6">
<g opacity="0.6">
<g opacity="0.6">
<path opacity="0.6" d="M203.863 244.12C203.296 244.214 202.844 244.788 202.909 245.362C202.973 245.937 203.562 246.396 204.129 246.317C204.696 246.238 205.263 245.556 205.134 244.996C205.005 244.436 204.287 243.927 203.749 244.142" fill="white"/>
</g>
</g>
</g>
</g>
</g>
</g>
</g>
</g>
</g>
</g>
<g opacity="0.6">
<g opacity="0.6">
<g opacity="0.6">
<g opacity="0.6">
<g opacity="0.6">
<g opacity="0.6">
<g opacity="0.6">
<g opacity="0.6">
<g opacity="0.6">
<path opacity="0.6" d="M198.042 253.036L198.286 250.717L225.894 253.668C225.894 253.668 226.784 254.141 226.834 255.312L198.042 253.036Z" fill="white"/>
</g>
</g>
</g>
</g>
</g>
</g>
</g>
</g>
</g>
<path d="M213.037 246.231C213.016 246.367 212.312 246.36 211.58 246.733C210.834 247.085 210.417 247.652 210.295 247.58C210.173 247.537 210.468 246.726 211.365 246.296C212.255 245.843 213.08 246.102 213.037 246.231Z" fill="#223263"/>
<path d="M215.901 247.796C215.916 247.932 215.291 248.104 214.753 248.643C214.2 249.167 214.006 249.791 213.87 249.77C213.734 249.777 213.726 248.951 214.408 248.291C215.083 247.631 215.909 247.659 215.901 247.796Z" fill="#223263"/>
<path d="M217.208 251.564C217.079 251.579 216.957 250.861 217.402 250.136C217.84 249.411 218.529 249.181 218.572 249.303C218.636 249.425 218.17 249.791 217.818 250.387C217.452 250.983 217.344 251.572 217.208 251.564Z" fill="#223263"/>
<path d="M213.152 242.836C213.08 242.958 212.463 242.692 211.666 242.663C210.869 242.613 210.231 242.814 210.173 242.685C210.101 242.577 210.762 242.125 211.695 242.175C212.628 242.218 213.238 242.735 213.152 242.836Z" fill="#223263"/>
<g opacity="0.3">
<g opacity="0.3">
<g opacity="0.3">
<g opacity="0.3">
<g opacity="0.3">
<g opacity="0.3">
<g opacity="0.3">
<g opacity="0.3">
<g opacity="0.3">
<path opacity="0.3" d="M214.272 234.573L213.892 237.179L199.872 235.514L200.109 233.152L214.272 234.573Z" fill="#010202"/>
</g>
</g>
</g>
</g>
</g>
</g>
</g>
</g>
</g>
<path d="M213.533 239.871C213.526 239.928 212.966 239.957 212.104 239.706C211.674 239.584 211.171 239.383 210.661 239.081C210.403 238.931 210.145 238.758 209.886 238.557C209.764 238.457 209.621 238.356 209.491 238.177C209.355 238.012 209.305 237.631 209.506 237.43C209.678 237.229 209.944 237.158 210.152 237.179C210.36 237.193 210.532 237.258 210.683 237.315C210.992 237.43 211.279 237.567 211.537 237.717C212.054 238.026 212.463 238.385 212.765 238.73C213.36 239.419 213.533 239.964 213.475 239.986C213.403 240.022 213.131 239.555 212.513 238.974C212.205 238.687 211.803 238.378 211.315 238.112C211.071 237.983 210.805 237.868 210.518 237.768C210.223 237.653 209.965 237.624 209.872 237.753C209.836 237.804 209.829 237.818 209.886 237.918C209.944 238.005 210.058 238.098 210.173 238.198C210.41 238.392 210.647 238.565 210.884 238.715C211.358 239.017 211.81 239.239 212.212 239.397C213.009 239.699 213.547 239.792 213.533 239.871Z" fill="#223263"/>
<path d="M213.332 240.05C213.281 240.065 213.059 239.533 213.109 238.629C213.138 238.177 213.238 237.638 213.475 237.086C213.597 236.806 213.748 236.526 213.935 236.26C214.136 235.995 214.38 235.643 214.925 235.636C215.212 235.657 215.421 235.901 215.478 236.102C215.55 236.303 215.55 236.476 215.564 236.641C215.579 236.978 215.535 237.308 215.456 237.602C215.299 238.198 214.997 238.679 214.681 239.017C214.042 239.699 213.439 239.799 213.432 239.749C213.396 239.677 213.906 239.455 214.416 238.794C214.667 238.464 214.904 238.026 215.019 237.502C215.076 237.244 215.105 236.956 215.083 236.669C215.069 236.361 214.983 236.102 214.868 236.124C214.724 236.109 214.459 236.31 214.315 236.54C214.143 236.777 213.992 237.028 213.877 237.279C213.64 237.775 213.511 238.263 213.447 238.679C213.317 239.498 213.411 240.036 213.332 240.05Z" fill="#223263"/>
<path d="M223.647 109.714C223.647 109.714 230.409 122.685 230.409 133.179C230.409 135.398 216.684 245.492 216.684 245.492L197.259 243.862L206.677 142.138L203.627 121.464L223.647 109.714Z" fill="#313155"/>
<path d="M180.398 121.206C180.398 121.206 184.934 159.115 187.066 173.723C189.299 189.012 193.677 191.905 193.677 191.905L232.376 240.854L245.096 229.577L211.774 179.501C211.774 179.501 204.711 119.727 205.005 121.206C205.285 122.685 180.398 121.206 180.398 121.206Z" fill="#223263"/>
<path d="M194.359 192.537C194.352 192.544 194.46 192.709 194.69 193.004C194.941 193.327 195.271 193.757 195.687 194.296C196.585 195.451 197.841 197.059 199.377 199.041C202.478 203.103 206.728 208.66 211.415 214.797C216.11 220.963 220.381 226.519 223.546 230.489C225.126 232.477 226.425 234.071 227.337 235.155C227.775 235.672 228.126 236.088 228.392 236.404C228.636 236.684 228.772 236.827 228.779 236.82C228.787 236.813 228.679 236.648 228.449 236.353C228.198 236.03 227.868 235.6 227.451 235.061C226.554 233.906 225.298 232.298 223.762 230.317C220.661 226.254 216.411 220.698 211.724 214.56C207.036 208.401 202.758 202.838 199.592 198.868C198.013 196.88 196.714 195.286 195.802 194.202C195.364 193.686 195.013 193.269 194.747 192.953C194.503 192.666 194.374 192.523 194.359 192.537Z" fill="#313155"/>
<path d="M207.524 143.401C207.517 143.401 207.517 143.459 207.524 143.574C207.539 143.71 207.546 143.875 207.567 144.076C207.618 144.55 207.682 145.196 207.761 146.014C207.948 147.723 208.214 150.149 208.537 153.128C209.233 159.158 210.188 167.434 211.243 176.58C211.365 177.585 211.48 178.582 211.587 179.516L211.595 179.559L211.616 179.594C216.347 186.694 220.553 193.011 223.604 197.591C225.118 199.837 226.346 201.661 227.215 202.946C227.631 203.549 227.961 204.03 228.205 204.381C228.313 204.532 228.399 204.647 228.471 204.747C228.535 204.826 228.564 204.869 228.571 204.869C228.578 204.869 228.55 204.819 228.499 204.733C228.435 204.625 228.356 204.503 228.263 204.345C228.033 203.986 227.717 203.491 227.322 202.874C226.475 201.574 225.284 199.737 223.805 197.461C220.783 192.867 216.605 186.522 211.91 179.401L211.939 179.48C211.831 178.546 211.709 177.549 211.595 176.544C210.496 167.406 209.506 159.129 208.788 153.099C208.415 150.127 208.113 147.708 207.898 146C207.79 145.189 207.697 144.543 207.639 144.069C207.611 143.868 207.582 143.703 207.56 143.566C207.546 143.459 207.532 143.401 207.524 143.401Z" fill="#313155"/>
<g opacity="0.3">
<g opacity="0.3">
<path opacity="0.3" d="M182.142 135.563C182.142 135.563 197.188 139.532 207.524 137.888C222.104 135.563 230.079 128.901 230.079 128.901L228.779 124.738L181.539 130.667L182.142 135.563Z" fill="#313155"/>
</g>
</g>
<path d="M205.809 49.437L217.316 52.739C217.316 52.739 224.092 101.035 225.779 108.084C227.889 116.928 230.265 123.898 230.057 126.36C230.057 126.36 224.817 133.301 209.398 135.117C193.979 136.934 179.285 132.619 179.285 132.619L178.021 103.641C178.021 103.641 170.908 77.6981 170.75 73.3695C170.369 62.7384 172.954 56.5364 172.954 56.5364L188.315 49.6524C192.586 54.4331 203.569 56.0052 205.809 49.437Z" fill="#9098B1"/>
<path d="M227.143 61.5971C223.999 54.5623 217.323 52.739 217.323 52.739L218.306 77.0161L224.652 84.9553L218.306 89.2623L228.973 103.095C228.973 103.095 239.181 98.2998 239.64 93.9928C240.085 89.6787 228.844 65.3944 227.143 61.5971Z" fill="#9098B1"/>
<path d="M197.891 88.3722L195.293 97.4025C204.258 108.034 228.966 103.095 228.966 103.095L219.139 89.2192C214.035 90.8774 197.891 88.3722 197.891 88.3722Z" fill="#9098B1"/>
<path d="M195.709 87.0586C195.709 87.0586 191.1 77.978 190.605 77.8703C190.11 77.7626 182.86 75.2144 182.86 75.2144C182.86 75.2144 182.472 76.2121 182.86 77.0376L180.261 77.3679C180.261 77.3679 180.649 78.9758 181.532 79.1911L180.591 80.0238C180.591 80.0238 181.367 81.0862 182.364 81.5241C183.362 81.962 184.08 81.5241 184.08 81.5241C184.08 81.5241 183.75 82.1271 185.243 83.0674C186.736 84.0078 189.751 88.365 189.751 88.365L195.709 87.0586Z" fill="#F9BE9D"/>
<path d="M183.089 77.0735C183.053 77.174 185.178 78.0067 187.834 78.9183C188.495 79.1552 189.155 79.3347 189.672 79.5859C190.196 79.83 190.526 80.232 190.756 80.6196C191.187 81.402 191.352 81.9691 191.416 81.9404C191.452 81.9261 191.395 81.3518 191 80.4832C190.799 80.0597 190.426 79.5572 189.837 79.2629C189.263 78.9686 188.624 78.7891 187.963 78.5522C185.307 77.6262 183.125 76.9658 183.089 77.0735Z" fill="#313155"/>
<path d="M181.395 79.1983C181.381 79.2486 181.869 79.4639 182.709 79.6721C183.542 79.8946 184.712 80.0813 185.953 80.4186C187.195 80.756 188.236 81.28 188.889 81.7969C189.55 82.3065 189.844 82.7588 189.894 82.7229C189.93 82.7085 189.715 82.1845 189.069 81.5887C188.43 80.9857 187.339 80.3827 186.054 80.0382C184.776 79.6936 183.599 79.5501 182.766 79.3993C181.926 79.2629 181.417 79.1481 181.395 79.1983Z" fill="#313155"/>
<path d="M188.042 83.0244C188.114 82.9526 187.425 82.242 186.305 81.8471C185.185 81.4452 184.202 81.5528 184.216 81.6605C184.216 81.7754 185.128 81.84 186.176 82.2204C187.217 82.5865 187.971 83.1177 188.042 83.0244Z" fill="#313155"/>
<path d="M177.174 56.6585C180.455 57.4624 181.424 61.3172 183.692 69.0267C185.961 76.7362 188.452 84.6755 188.452 84.6755L189.736 88.3723L218.306 81.4739L224.085 90.6263C224.085 90.6263 205.5 105.385 192.148 105.974C185.645 105.371 181.402 102.93 176.098 94.158C173.097 89.1978 171.137 84.6037 170.247 80.1316C169.005 73.8936 166.924 67.792 168.668 61.8915C170.046 57.2614 172.487 55.5099 177.174 56.6585Z" fill="#9098B1"/>
<path d="M219.11 74.9201C219.218 74.8986 218.945 73.1758 218.5 71.0725C218.055 68.9693 217.61 67.2824 217.509 67.3039C217.402 67.3254 217.674 69.0483 218.12 71.1515C218.557 73.2548 219.002 74.9417 219.11 74.9201Z" fill="#223263"/>
<g opacity="0.3">
<g opacity="0.3">
<g opacity="0.3">
<g opacity="0.3">
<g opacity="0.3">
<path opacity="0.3" d="M198.939 104.732C200.403 104.114 202.543 103.475 204.115 103.231C206.024 102.944 207.618 103.504 209.52 103.806C215.198 104.696 219.433 104.021 224.788 103.784L225.075 105.428C222.721 107.266 219.756 107.847 216.77 107.797C214.057 107.747 211.401 106.864 208.687 106.943C206.548 107 204.481 107.653 202.413 108.206C198.961 109.125 195.35 109.685 191.811 109.153C182.931 107.818 179.507 100.834 178.029 97.582C178.553 98.4291 179.809 100.231 180.484 100.941C186.133 106.813 194.252 106.706 198.939 104.732Z" fill="#010202"/>
</g>
</g>
</g>
</g>
</g>
<path d="M225.075 90.7052C225.083 90.7124 225.032 90.7483 224.939 90.8273C224.824 90.9134 224.688 91.0211 224.523 91.1503C224.149 91.4374 223.597 91.8394 222.872 92.3491C221.429 93.3756 219.304 94.8113 216.605 96.4766C213.906 98.1348 210.625 100.023 206.835 101.81C205.888 102.255 204.911 102.715 203.892 103.117C203.382 103.325 202.873 103.533 202.349 103.748C201.825 103.942 201.286 104.122 200.748 104.315C198.602 105.105 196.283 105.651 193.878 106.017C192.658 106.074 191.459 106.239 190.268 106.11C189.083 105.966 187.92 105.744 186.851 105.299C184.676 104.495 182.867 103.124 181.331 101.695C178.294 98.745 176.349 95.4286 174.906 92.6147C173.485 89.7792 172.587 87.3601 172.02 85.6804C171.74 84.8406 171.547 84.1801 171.417 83.7279C171.367 83.5197 171.324 83.3475 171.288 83.2111C171.259 83.0962 171.252 83.0316 171.259 83.0316C171.267 83.0316 171.288 83.0891 171.324 83.2039C171.367 83.3403 171.425 83.5054 171.489 83.7064C171.633 84.1514 171.855 84.7975 172.157 85.6302C172.767 87.2884 173.693 89.6787 175.136 92.4926C176.593 95.2778 178.56 98.5512 181.56 101.444C183.082 102.844 184.862 104.179 186.98 104.954C188.021 105.385 189.155 105.6 190.304 105.737C191.459 105.866 192.644 105.701 193.835 105.643C196.204 105.284 198.494 104.746 200.633 103.964C201.172 103.777 201.703 103.59 202.227 103.411C202.744 103.203 203.253 102.995 203.763 102.786C204.782 102.392 205.751 101.939 206.699 101.501C210.482 99.7356 213.762 97.8764 216.476 96.2541C219.189 94.6246 221.328 93.2248 222.8 92.2342C223.51 91.7533 224.078 91.3728 224.487 91.0929C224.666 90.9709 224.81 90.8775 224.925 90.7986C225.025 90.734 225.075 90.6981 225.075 90.7052Z" fill="#223263"/>
<path d="M182.939 65.5955C182.924 65.5955 182.96 65.7606 183.039 66.0621C183.132 66.3923 183.247 66.8301 183.398 67.3757C183.735 68.5529 184.209 70.1968 184.791 72.2282C186.011 76.363 187.691 82.0482 189.571 88.4225L189.622 88.5877L189.808 88.5374C190.476 88.3723 191.273 88.2072 192.034 88.0421C199.075 86.5346 205.428 85.0631 209.994 83.8571C212.276 83.2613 214.114 82.7301 215.377 82.3497C215.98 82.1559 216.461 81.9979 216.827 81.8831C217.158 81.7754 217.33 81.7108 217.323 81.6965C217.316 81.6821 217.143 81.7252 216.806 81.8113C216.44 81.9118 215.952 82.0482 215.342 82.2133C214.064 82.5507 212.226 83.046 209.936 83.6059C205.356 84.7472 199.004 86.1757 191.962 87.6832C191.179 87.8555 190.447 87.999 189.686 88.2L189.923 88.3149C187.999 81.9477 186.284 76.2768 185.035 72.1493C184.41 70.1393 183.9 68.5027 183.534 67.3326C183.362 66.7942 183.219 66.3636 183.111 66.0333C183.003 65.7462 182.946 65.5955 182.939 65.5955Z" fill="#223263"/>
<path d="M226.468 88.4871L238.736 88.2646C239.87 88.3077 240.918 87.5252 241.384 86.2978L248.548 64.5618C249.094 62.9323 247.881 61.6043 245.943 61.4895L230.926 60.6424C228.514 60.6209 227.229 61.3961 226.813 62.7744L222.125 79.9019C220.941 83.8643 222.922 88.3579 226.468 88.4871Z" fill="#223263"/>
<path d="M217.746 80.2034L219.706 76.0543L223.324 75.035L222.168 78.861C223.432 79.4712 225.104 79.8732 226.202 79.2702C227.293 78.6672 231.579 74.4105 232.383 74.8196C233.187 75.2288 233.912 76.2051 233.173 77.1383C232.433 78.0714 228.42 80.9715 229.246 81.8257C230.079 82.6799 234.702 78.9257 236.058 79.2056C237.422 79.4856 238.248 80.2752 237.487 80.8494C236.74 81.4237 234.867 83.2973 234.536 84.1084C234.615 85.1277 235.103 86.5778 234.658 86.829C234.005 87.2023 231.723 87.9847 231.256 88.0062C231.012 88.0206 229.289 88.6954 227.703 89.3342C225.915 90.0521 223.934 90.1023 222.118 89.4634L221.192 89.1404C219.749 88.6379 218.794 87.2669 218.809 85.7451L218.837 82.6799L217.746 80.2034Z" fill="#F9BE9D"/>
<defs>
<clipPath id="clip0_123_12">
<rect width="134" height="218" fill="white" transform="translate(65)"/>
</clipPath>
</defs>
</svg>
